<?xml version="1.0" encoding="UTF-8" standalone="no"?>
<!DOCTYPE svg PUBLIC "-//W3C//DTD SVG 1.1//EN"
 "http://www.w3.org/Graphics/SVG/1.1/DTD/svg11.dtd">
<!-- Generated by graphviz version 14.1.1 (20251213.1925)
 -->
<!-- Title: callgraph Pages: 1 -->
<svg width="381pt" height="99pt"
 viewBox="0.00 0.00 381.00 99.00" xmlns="http://www.w3.org/2000/svg" xmlns:xlink="http://www.w3.org/1999/xlink">
<g id="graph0" class="graph" transform="scale(1 1) rotate(0) translate(4 95.1)">
<title>callgraph</title>
<polygon fill="#f5f5f5" stroke="none" points="-4,4 -4,-95.1 377,-95.1 377,4 -4,4"/>
<text xml:space="preserve" text-anchor="start" x="8" y="-79.5" font-family="Helvetica Neue,Helvetica" font-size="8.00" fill="#1a1a1a">D:\projects\SAniMatchRS\frameworks\runtime&#45;src\proj.android\app\assets\script\jsb_audioengine.js</text>
<!-- n_main -->
<g id="node1" class="node">
<title>n_main</title>
<polygon fill="#0b3d91" stroke="#1a1a1a" stroke-width="0" points="165,-46.6 111,-46.6 111,-25 165,-25 165,-46.6"/>
<text xml:space="preserve" text-anchor="middle" x="138" y="-32.88" font-family="Helvetica Neue,Helvetica,Arial" font-size="9.00" fill="white">main</text>
</g>
<!-- n_anon_00230 -->
<g id="node2" class="node">
<title>n_anon_00230</title>
<polygon fill="white" stroke="#9e9e9e" stroke-width="0.5" stroke-dasharray="5,2" points="262,-72.6 208,-72.6 208,-51 262,-51 262,-72.6"/>
<text xml:space="preserve" text-anchor="middle" x="235" y="-58.88" font-family="Helvetica Neue,Helvetica,Arial" font-size="9.00" fill="#9e9e9e">anon#0</text>
</g>
<!-- n_main&#45;&gt;n_anon_00230 -->
<g id="edge2" class="edge">
<title>n_main&#45;&gt;n_anon_00230</title>
<path fill="none" stroke="#9e9e9e" stroke-width="0.5" d="M164.96,-42.9C176.69,-46.11 190.64,-49.93 202.92,-53.29"/>
<polygon fill="#9e9e9e" stroke="#9e9e9e" stroke-width="0.5" points="207.48,-54.54 202.07,-55.39 205.66,-54.04 202.66,-53.22 202.66,-53.22 202.66,-53.22 205.66,-54.04 203.26,-51.05 207.48,-54.54"/>
</g>
<!-- n_jsb -->
<g id="node3" class="node">
<title>n_jsb</title>
<text xml:space="preserve" text-anchor="middle" x="235" y="-8.45" font-family="Helvetica Neue,Helvetica,Arial" font-size="8.00" fill="#fc3d21">jsb</text>
</g>
<!-- n_main&#45;&gt;n_jsb -->
<g id="edge1" class="edge">
<title>n_main&#45;&gt;n_jsb</title>
<path fill="none" stroke="#fc3d21" stroke-width="0.4" stroke-dasharray="5,2" d="M164.96,-28.97C176.69,-25.88 190.64,-22.21 202.92,-18.98"/>
<polygon fill="#fc3d21" stroke="#fc3d21" stroke-width="0.4" points="207.6,-17.75 203.34,-21.2 205.65,-18.26 202.77,-19.02 202.77,-19.02 202.77,-19.02 205.65,-18.26 202.19,-16.84 207.6,-17.75"/>
</g>
</g>
</svg>
