<?xml version="1.0" encoding="UTF-8" standalone="no"?>
<!DOCTYPE svg PUBLIC "-//W3C//DTD SVG 1.1//EN"
 "http://www.w3.org/Graphics/SVG/1.1/DTD/svg11.dtd">
<!-- Generated by graphviz version 14.1.1 (20251213.1925)
 -->
<!-- Title: cfg Pages: 1 -->
<svg width="576pt" height="208pt"
 viewBox="0.00 0.00 576.00 208.00" xmlns="http://www.w3.org/2000/svg" xmlns:xlink="http://www.w3.org/1999/xlink">
<g id="graph0" class="graph" transform="scale(1 1) rotate(0) translate(4 203.5)">
<title>cfg</title>
<polygon fill="#faf6f0" stroke="none" points="-4,4 -4,-203.5 571.87,-203.5 571.87,4 -4,4"/>
<text xml:space="preserve" text-anchor="start" x="8" y="-187.9" font-family="Helvetica Neue,Helvetica" font-size="8.00" fill="#2d2d2d">D:\projects\SAniMatchRS\frameworks\runtime&#45;src\proj.android\app\assets\script\jsb_audioengine.js</text>
<g id="clust1" class="cluster">
<title>cluster_0</title>
<polygon fill="#faf6f0" stroke="#8e8e8e" stroke-width="0.3" stroke-dasharray="1,5" points="8,-112 8,-173 78,-173 78,-112 8,-112"/>
<text xml:space="preserve" text-anchor="start" x="16" y="-161.4" font-family="Helvetica Neue,Helvetica" font-size="8.00" fill="#2d2d2d">main</text>
</g>
<g id="clust2" class="cluster">
<title>cluster_1</title>
<polygon fill="#faf6f0" stroke="#8e8e8e" stroke-width="0.3" stroke-dasharray="1,5" points="107,-8 107,-139 559.87,-139 559.87,-8 107,-8"/>
<text xml:space="preserve" text-anchor="start" x="115" y="-127.4" font-family="Helvetica Neue,Helvetica" font-size="8.00" fill="#2d2d2d">anon#0</text>
</g>
<!-- f0_b0 -->
<g id="node1" class="node">
<title>f0_b0</title>
<polygon fill="#2d2d2d" stroke="#2d2d2d" stroke-width="0" points="70,-146.01 16,-146.01 16,-119.99 70,-119.99 70,-146.01"/>
<text xml:space="preserve" text-anchor="start" x="38.12" y="-130.65" font-family="Helvetica Neue,Helvetica,Arial" font-size="8.00" fill="#faf6f0">jsb</text>
</g>
<!-- n_jsb -->
<g id="node2" class="node">
<title>n_jsb</title>
<text xml:space="preserve" text-anchor="middle" x="142" y="-155.65" font-family="Helvetica Neue,Helvetica,Arial" font-size="8.00" fill="#bf3f2f">jsb</text>
</g>
<!-- f0_b0&#45;&gt;n_jsb -->
<g id="edge1" class="edge">
<title>f0_b0&#45;&gt;n_jsb</title>
<path fill="none" stroke="#bf3f2f" stroke-width="0.3" stroke-dasharray="5,2" d="M69.99,-139.7C82.82,-143 98.34,-147 111.6,-150.42"/>
<polygon fill="#bf3f2f" stroke="#bf3f2f" stroke-width="0.3" points="114.92,-151.28 111.13,-151.93 113.58,-150.93 111.53,-150.4 111.53,-150.4 111.53,-150.4 113.58,-150.93 111.92,-148.88 114.92,-151.28"/>
</g>
<!-- f1_b0 -->
<g id="node3" class="node">
<title>f1_b0</title>
<polygon fill="#2d2d2d" stroke="#2d2d2d" stroke-width="0" points="169,-111.01 115,-111.01 115,-88.99 169,-88.99 169,-111.01"/>
<text xml:space="preserve" text-anchor="start" x="133" y="-97.65" font-family="Helvetica Neue,Helvetica,Arial" font-size="8.00" fill="#faf6f0">entry</text>
</g>
<!-- f0_b0&#45;&gt;f1_b0 -->
<g id="edge2" class="edge">
<title>f0_b0&#45;&gt;f1_b0</title>
<path fill="none" stroke="#2d4a7a" stroke-width="0.3" stroke-dasharray="5,2" d="M69.99,-124.16C80.3,-120.65 92.34,-116.55 103.55,-112.74"/>
<polygon fill="#2d4a7a" stroke="#2d4a7a" stroke-width="0.3" points="106.66,-111.68 103.85,-114.3 105.35,-112.13 103.34,-112.81 103.34,-112.81 103.34,-112.81 105.35,-112.13 102.84,-111.32 106.66,-111.68"/>
</g>
<!-- f1_b1 -->
<g id="node4" class="node">
<title>f1_b1</title>
<polygon fill="none" stroke="#8e8e8e" stroke-width="0.3" points="283.16,-68.01 214,-68.01 214,-41.99 283.16,-41.99 283.16,-68.01"/>
<text xml:space="preserve" text-anchor="start" x="226.08" y="-52.65" font-family="Helvetica Neue,Helvetica,Arial" font-size="8.00" fill="#8b7355">AudioEngine</text>
</g>
<!-- f1_b0&#45;&gt;f1_b1 -->
<g id="edge3" class="edge">
<title>f1_b0&#45;&gt;f1_b1</title>
<path fill="none" stroke="#8e8e8e" stroke-width="0.4" d="M168.58,-88.99C182.07,-83.19 198.81,-75.99 213.39,-69.71"/>
<polygon fill="#8e8e8e" stroke="#8e8e8e" stroke-width="0.4" points="216.61,-68.33 214.01,-71.16 215.45,-68.83 213.39,-69.71 213.39,-69.71 213.39,-69.71 215.45,-68.83 212.77,-68.26 216.61,-68.33"/>
</g>
<!-- f1_b2 -->
<g id="node5" class="node">
<title>f1_b2</title>
<polygon fill="none" stroke="#2d2d2d" stroke-width="0.3" points="333.56,-92.4 328.16,-87 333.56,-81.6 338.96,-87 333.56,-92.4"/>
</g>
<!-- f1_b0&#45;&gt;f1_b2 -->
<g id="edge4" class="edge">
<title>f1_b0&#45;&gt;f1_b2</title>
<path fill="none" stroke="#8e8e8e" stroke-width="0.4" d="M168.96,-98.22C212.66,-95.22 298.7,-89.32 324.84,-87.53"/>
<polygon fill="#8e8e8e" stroke="#8e8e8e" stroke-width="0.4" points="328.02,-87.31 324.64,-89.12 326.76,-87.4 324.53,-87.55 324.53,-87.55 324.53,-87.55 326.76,-87.4 324.42,-85.98 328.02,-87.31"/>
</g>
<!-- f1_b1&#45;&gt;f1_b2 -->
<g id="edge5" class="edge">
<title>f1_b1&#45;&gt;f1_b2</title>
<path fill="none" stroke="#8e8e8e" stroke-width="0.4" d="M282.85,-67.83C298.81,-73.98 316.45,-80.79 325.83,-84.4"/>
<polygon fill="#8e8e8e" stroke="#8e8e8e" stroke-width="0.4" points="329.06,-85.65 325.23,-85.86 327.88,-85.2 325.8,-84.39 325.8,-84.39 325.8,-84.39 327.88,-85.2 326.36,-82.92 329.06,-85.65"/>
</g>
<!-- f1_b3 -->
<g id="node6" class="node">
<title>f1_b3</title>
<text xml:space="preserve" text-anchor="middle" x="470.04" y="-36.65" font-family="Helvetica Neue,Helvetica,Arial" font-size="8.00" fill="#8e8e8e">ret</text>
</g>
<!-- f1_b2&#45;&gt;f1_b3 -->
<g id="edge6" class="edge">
<title>f1_b2&#45;&gt;f1_b3</title>
<path fill="none" stroke="#2d4a7a" stroke-width="0.4" d="M337.21,-85.11C341.84,-81.89 351.77,-75.29 360.96,-71.25 386.55,-60.01 417.21,-51.28 439.32,-45.75"/>
<polygon fill="#2d4a7a" stroke="#2d4a7a" stroke-width="0.4" points="442.6,-44.94 439.58,-47.31 441.37,-45.24 439.2,-45.78 439.2,-45.78 439.2,-45.78 441.37,-45.24 438.82,-44.25 442.6,-44.94"/>
<text xml:space="preserve" text-anchor="start" x="360.96" y="-73.4" font-family="Times,serif" font-size="8.00" fill="#2d4a7a">T</text>
</g>
<!-- f1_b4 -->
<g id="node7" class="node">
<title>f1_b4</title>
<polygon fill="none" stroke="#8e8e8e" stroke-width="0.3" points="551.87,-112.01 388.21,-112.01 388.21,-85.99 551.87,-85.99 551.87,-112.01"/>
<text xml:space="preserve" text-anchor="start" x="400.29" y="-96.65" font-family="Helvetica Neue,Helvetica,Arial" font-size="8.00" fill="#8b7355">AudioEngine.AudioEngine.AudioEngine</text>
</g>
<!-- f1_b2&#45;&gt;f1_b4 -->
<g id="edge7" class="edge">
<title>f1_b2&#45;&gt;f1_b4</title>
<path fill="none" stroke="#bf3f2f" stroke-width="0.4" d="M338.73,-87.37C346.54,-88.07 364.38,-89.66 384.44,-91.45"/>
<polygon fill="#bf3f2f" stroke="#bf3f2f" stroke-width="0.4" points="387.72,-91.74 384.09,-93 386.46,-91.63 384.23,-91.43 384.23,-91.43 384.23,-91.43 386.46,-91.63 384.37,-89.86 387.72,-91.74"/>
<text xml:space="preserve" text-anchor="start" x="361.34" y="-91.74" font-family="Times,serif" font-size="8.00" fill="#bf3f2f">F</text>
</g>
</g>
</svg>
