<?xml version="1.0" encoding="UTF-8" standalone="no"?>
<!DOCTYPE svg PUBLIC "-//W3C//DTD SVG 1.1//EN"
 "http://www.w3.org/Graphics/SVG/1.1/DTD/svg11.dtd">
<!-- Generated by graphviz version 14.1.1 (20251213.1925)
 -->
<!-- Title: cfg Pages: 1 -->
<svg width="1218pt" height="721pt"
 viewBox="0.00 0.00 1218.00 721.00" xmlns="http://www.w3.org/2000/svg" xmlns:xlink="http://www.w3.org/1999/xlink">
<g id="graph0" class="graph" transform="scale(1 1) rotate(0) translate(4 716.5)">
<title>cfg</title>
<polygon fill="#faf6f0" stroke="none" points="-4,4 -4,-716.5 1213.69,-716.5 1213.69,4 -4,4"/>
<text xml:space="preserve" text-anchor="start" x="8" y="-700.9" font-family="Helvetica Neue,Helvetica" font-size="8.00" fill="#2d2d2d">D:\projects\SAniMatchRS\frameworks\runtime&#45;src\proj.android\app\assets\res\loading.js</text>
<g id="clust1" class="cluster">
<title>cluster_0</title>
<polygon fill="#faf6f0" stroke="#8e8e8e" stroke-width="0.3" stroke-dasharray="1,5" points="8,-229 8,-286 78,-286 78,-229 8,-229"/>
<text xml:space="preserve" text-anchor="start" x="16" y="-274.4" font-family="Helvetica Neue,Helvetica" font-size="8.00" fill="#2d2d2d">main</text>
</g>
<g id="clust2" class="cluster">
<title>cluster_1</title>
<polygon fill="#faf6f0" stroke="#8e8e8e" stroke-width="0.3" stroke-dasharray="1,5" points="107,-229 107,-286 177,-286 177,-229 107,-229"/>
<text xml:space="preserve" text-anchor="start" x="115" y="-274.4" font-family="Helvetica Neue,Helvetica" font-size="8.00" fill="#2d2d2d">anon#0</text>
</g>
<g id="clust3" class="cluster">
<title>cluster_2</title>
<polygon fill="#faf6f0" stroke="#8e8e8e" stroke-width="0.3" stroke-dasharray="1,5" points="206,-571 206,-686 276,-686 276,-571 206,-571"/>
<text xml:space="preserve" text-anchor="start" x="214" y="-674.4" font-family="Helvetica Neue,Helvetica" font-size="8.00" fill="#2d2d2d">createStyle</text>
</g>
<g id="clust4" class="cluster">
<title>cluster_3</title>
<polygon fill="#faf6f0" stroke="#8e8e8e" stroke-width="0.3" stroke-dasharray="1,5" points="206,-324 206,-563 826.12,-563 826.12,-324 206,-324"/>
<text xml:space="preserve" text-anchor="start" x="214" y="-551.4" font-family="Helvetica Neue,Helvetica" font-size="8.00" fill="#2d2d2d">createDom</text>
</g>
<g id="clust5" class="cluster">
<title>cluster_4</title>
<polygon fill="#faf6f0" stroke="#8e8e8e" stroke-width="0.3" stroke-dasharray="1,5" points="206,-114 206,-171 276,-171 276,-114 206,-114"/>
<text xml:space="preserve" text-anchor="start" x="214" y="-159.4" font-family="Helvetica Neue,Helvetica" font-size="8.00" fill="#2d2d2d">startAnimation</text>
</g>
<g id="clust6" class="cluster">
<title>cluster_5</title>
<polygon fill="#faf6f0" stroke="#8e8e8e" stroke-width="0.3" stroke-dasharray="1,5" points="305,-102 305,-159 409.5,-159 409.5,-102 305,-102"/>
<text xml:space="preserve" text-anchor="start" x="313" y="-147.4" font-family="Helvetica Neue,Helvetica" font-size="8.00" fill="#2d2d2d">startAnimation/animation</text>
</g>
<g id="clust7" class="cluster">
<title>cluster_6</title>
<polygon fill="#faf6f0" stroke="#8e8e8e" stroke-width="0.3" stroke-dasharray="1,5" points="481.71,-8 481.71,-139 1201.69,-139 1201.69,-8 481.71,-8"/>
<text xml:space="preserve" text-anchor="start" x="489.71" y="-127.4" font-family="Helvetica Neue,Helvetica" font-size="8.00" fill="#2d2d2d">startAnimation/animation/&lt;</text>
</g>
<g id="clust8" class="cluster">
<title>cluster_7</title>
<polygon fill="#faf6f0" stroke="#8e8e8e" stroke-width="0.3" stroke-dasharray="1,5" points="692.96,-171 692.96,-246 817.12,-246 817.12,-171 692.96,-171"/>
<text xml:space="preserve" text-anchor="start" x="700.96" y="-234.4" font-family="Helvetica Neue,Helvetica" font-size="8.00" fill="#2d2d2d">anon#3</text>
</g>
<g id="clust9" class="cluster">
<title>cluster_8</title>
<polygon fill="#faf6f0" stroke="#8e8e8e" stroke-width="0.3" stroke-dasharray="1,5" points="859.37,-147 859.37,-289 1201.69,-289 1201.69,-147 859.37,-147"/>
<text xml:space="preserve" text-anchor="start" x="867.37" y="-277.4" font-family="Helvetica Neue,Helvetica" font-size="8.00" fill="#2d2d2d">anon#0</text>
</g>
<!-- f0_b0 -->
<g id="node1" class="node">
<title>f0_b0</title>
<polygon fill="#2d2d2d" stroke="#2d2d2d" stroke-width="0" points="70,-259.01 16,-259.01 16,-236.99 70,-236.99 70,-259.01"/>
<text xml:space="preserve" text-anchor="start" x="34" y="-245.65" font-family="Helvetica Neue,Helvetica,Arial" font-size="8.00" fill="#faf6f0">entry</text>
</g>
<!-- f1_b0 -->
<g id="node2" class="node">
<title>f1_b0</title>
<polygon fill="#2d2d2d" stroke="#2d2d2d" stroke-width="0" points="169,-259.01 115,-259.01 115,-236.99 169,-236.99 169,-259.01"/>
<text xml:space="preserve" text-anchor="start" x="133" y="-245.65" font-family="Helvetica Neue,Helvetica,Arial" font-size="8.00" fill="#faf6f0">entry</text>
</g>
<!-- f0_b0&#45;&gt;f1_b0 -->
<g id="edge1" class="edge">
<title>f0_b0&#45;&gt;f1_b0</title>
<path fill="none" stroke="#2d4a7a" stroke-width="0.3" stroke-dasharray="5,2" d="M69.99,-248C80.21,-248 92.13,-248 103.26,-248"/>
<polygon fill="#2d4a7a" stroke="#2d4a7a" stroke-width="0.3" points="106.64,-248 103.14,-249.58 105.25,-248 103.14,-248 103.14,-248 103.14,-248 105.25,-248 103.13,-246.43 106.64,-248"/>
</g>
<!-- f2_b0 -->
<g id="node3" class="node">
<title>f2_b0</title>
<polygon fill="#2d2d2d" stroke="#2d2d2d" stroke-width="0" points="268,-601.01 214,-601.01 214,-578.99 268,-578.99 268,-601.01"/>
<text xml:space="preserve" text-anchor="start" x="232" y="-587.65" font-family="Helvetica Neue,Helvetica,Arial" font-size="8.00" fill="#faf6f0">entry</text>
</g>
<!-- f1_b0&#45;&gt;f2_b0 -->
<g id="edge2" class="edge">
<title>f1_b0&#45;&gt;f2_b0</title>
<path fill="none" stroke="#2d4a7a" stroke-width="0.3" stroke-dasharray="5,2" d="M143.86,-258.82C147.96,-308.29 166.92,-512.84 203.99,-569.12"/>
<polygon fill="#2d4a7a" stroke="#2d4a7a" stroke-width="0.3" points="205.79,-571.7 202.5,-569.73 205,-570.56 203.79,-568.83 203.79,-568.83 203.79,-568.83 205,-570.56 205.08,-567.93 205.79,-571.7"/>
</g>
<!-- f3_b0 -->
<g id="node4" class="node">
<title>f3_b0</title>
<polygon fill="#2d2d2d" stroke="#2d2d2d" stroke-width="0" points="268,-366.01 214,-366.01 214,-343.99 268,-343.99 268,-366.01"/>
<text xml:space="preserve" text-anchor="start" x="232" y="-352.65" font-family="Helvetica Neue,Helvetica,Arial" font-size="8.00" fill="#faf6f0">entry</text>
</g>
<!-- f1_b0&#45;&gt;f3_b0 -->
<g id="edge3" class="edge">
<title>f1_b0&#45;&gt;f3_b0</title>
<path fill="none" stroke="#2d4a7a" stroke-width="0.3" stroke-dasharray="5,2" d="M152.66,-258.65C165.81,-273.16 189.96,-299.8 209.53,-321.39"/>
<polygon fill="#2d4a7a" stroke="#2d4a7a" stroke-width="0.3" points="211.65,-323.73 208.13,-322.19 210.72,-322.7 209.3,-321.14 209.3,-321.14 209.3,-321.14 210.72,-322.7 210.47,-320.08 211.65,-323.73"/>
</g>
<!-- f4_b0 -->
<g id="node5" class="node">
<title>f4_b0</title>
<polygon fill="#2d2d2d" stroke="#2d2d2d" stroke-width="0" points="268,-144.01 214,-144.01 214,-121.99 268,-121.99 268,-144.01"/>
<text xml:space="preserve" text-anchor="start" x="232" y="-130.65" font-family="Helvetica Neue,Helvetica,Arial" font-size="8.00" fill="#faf6f0">entry</text>
</g>
<!-- f1_b0&#45;&gt;f4_b0 -->
<g id="edge4" class="edge">
<title>f1_b0&#45;&gt;f4_b0</title>
<path fill="none" stroke="#2d4a7a" stroke-width="0.3" stroke-dasharray="5,2" d="M148.16,-237.24C155.99,-221.56 172,-192.05 191,-171 194.79,-166.8 199.09,-162.73 203.53,-158.9"/>
<polygon fill="#2d4a7a" stroke="#2d4a7a" stroke-width="0.3" points="205.73,-157.04 204.07,-160.5 204.67,-157.93 203.06,-159.3 203.06,-159.3 203.06,-159.3 204.67,-157.93 202.04,-158.1 205.73,-157.04"/>
</g>
<!-- f7_b0 -->
<g id="node6" class="node">
<title>f7_b0</title>
<polygon fill="#2d2d2d" stroke="#2d2d2d" stroke-width="0" points="809.12,-219.26 700.96,-219.26 700.96,-178.74 809.12,-178.74 809.12,-219.26"/>
<text xml:space="preserve" text-anchor="start" x="713.04" y="-204.9" font-family="Helvetica Neue,Helvetica,Arial" font-size="8.00" fill="#faf6f0">createElement </text>
<text xml:space="preserve" text-anchor="start" x="767.04" y="-204.9" font-family="Helvetica Neue,Helvetica,Arial" font-size="8.00" fill="#d4c5a9">(</text>
<text xml:space="preserve" text-anchor="start" x="769.29" y="-204.9" font-family="Helvetica Neue,Helvetica,Arial" font-size="8.00" fill="#e8a0a0">&quot;#000&quot;</text>
<text xml:space="preserve" text-anchor="start" x="794.79" y="-204.9" font-family="Helvetica Neue,Helvetica,Arial" font-size="8.00" fill="#d4c5a9">)</text>
<text xml:space="preserve" text-anchor="start" x="713.04" y="-189.4" font-family="Helvetica Neue,Helvetica,Arial" font-size="8.00" fill="#faf6f0">appendChild</text>
</g>
<!-- f1_b0&#45;&gt;f7_b0 -->
<g id="edge5" class="edge">
<title>f1_b0&#45;&gt;f7_b0</title>
<path fill="none" stroke="#2d4a7a" stroke-width="0.3" stroke-dasharray="5,2" d="M155.17,-237.13C172.64,-222.69 206.42,-199 240,-199 240,-199 240,-199 638.31,-199 654.8,-199 672.62,-199 689.22,-199"/>
<polygon fill="#2d4a7a" stroke="#2d4a7a" stroke-width="0.3" points="692.6,-199 689.1,-200.58 691.21,-199 689.1,-199 689.1,-199 689.1,-199 691.21,-199 689.1,-197.43 692.6,-199"/>
</g>
<!-- f3_b2 -->
<g id="node8" class="node">
<title>f3_b2</title>
<polygon fill="none" stroke="#2d2d2d" stroke-width="0.3" points="356.75,-380.4 351.35,-375 356.75,-369.6 362.15,-375 356.75,-380.4"/>
</g>
<!-- f3_b0&#45;&gt;f3_b2 -->
<g id="edge6" class="edge">
<title>f3_b0&#45;&gt;f3_b2</title>
<path fill="none" stroke="#8e8e8e" stroke-width="0.4" d="M267.81,-359.54C293.92,-364.13 332.62,-370.93 348.52,-373.73"/>
<polygon fill="#8e8e8e" stroke="#8e8e8e" stroke-width="0.4" points="351.57,-374.27 347.85,-375.21 350.33,-374.05 348.13,-373.66 348.13,-373.66 348.13,-373.66 350.33,-374.05 348.4,-372.11 351.57,-374.27"/>
</g>
<!-- f5_b0 -->
<g id="node18" class="node">
<title>f5_b0</title>
<polygon fill="#2d2d2d" stroke="#2d2d2d" stroke-width="0" points="383.75,-132.01 329.75,-132.01 329.75,-109.99 383.75,-109.99 383.75,-132.01"/>
<text xml:space="preserve" text-anchor="start" x="347.75" y="-118.65" font-family="Helvetica Neue,Helvetica,Arial" font-size="8.00" fill="#faf6f0">entry</text>
</g>
<!-- f4_b0&#45;&gt;f5_b0 -->
<g id="edge20" class="edge">
<title>f4_b0&#45;&gt;f5_b0</title>
<path fill="none" stroke="#2d4a7a" stroke-width="0.3" stroke-dasharray="5,2" d="M267.81,-130.28C277.81,-129.22 289.67,-127.97 301.38,-126.74"/>
<polygon fill="#2d4a7a" stroke="#2d4a7a" stroke-width="0.3" points="304.64,-126.39 301.33,-128.33 303.26,-126.54 301.16,-126.76 301.16,-126.76 301.16,-126.76 303.26,-126.54 301,-125.19 304.64,-126.39"/>
</g>
<!-- n_createElement -->
<g id="node14" class="node">
<title>n_createElement</title>
<text xml:space="preserve" text-anchor="middle" x="907.58" y="-311.65" font-family="Helvetica Neue,Helvetica,Arial" font-size="8.00" fill="#bf3f2f">createElement</text>
</g>
<!-- f7_b0&#45;&gt;n_createElement -->
<g id="edge30" class="edge">
<title>f7_b0&#45;&gt;n_createElement</title>
<path fill="none" stroke="#bf3f2f" stroke-width="0.3" stroke-dasharray="5,2" d="M802.17,-219.13C817.75,-227.89 834.04,-239.51 845.37,-254 858.01,-270.17 845,-283.35 859.37,-298 862.01,-300.69 865.11,-302.92 868.45,-304.78"/>
<polygon fill="#bf3f2f" stroke="#bf3f2f" stroke-width="0.3" points="871.52,-306.35 867.69,-306.17 870.29,-305.72 868.41,-304.76 868.41,-304.76 868.41,-304.76 870.29,-305.72 869.12,-303.36 871.52,-306.35"/>
</g>
<!-- n_appendChild -->
<g id="node15" class="node">
<title>n_appendChild</title>
<text xml:space="preserve" text-anchor="middle" x="907.58" y="-457.65" font-family="Helvetica Neue,Helvetica,Arial" font-size="8.00" fill="#bf3f2f">appendChild</text>
</g>
<!-- f7_b0&#45;&gt;n_appendChild -->
<g id="edge31" class="edge">
<title>f7_b0&#45;&gt;n_appendChild</title>
<path fill="none" stroke="#bf3f2f" stroke-width="0.3" stroke-dasharray="5,2" d="M768.42,-218.98C782.6,-241.99 806.43,-281 826.12,-315 853.6,-362.44 884.72,-419.55 898.86,-445.68"/>
<polygon fill="#bf3f2f" stroke="#bf3f2f" stroke-width="0.3" points="900.48,-448.69 897.43,-446.36 899.82,-447.47 898.82,-445.61 898.82,-445.61 898.82,-445.61 899.82,-447.47 900.2,-444.86 900.48,-448.69"/>
</g>
<!-- f8_b0 -->
<g id="node27" class="node">
<title>f8_b0</title>
<polygon fill="#2d2d2d" stroke="#2d2d2d" stroke-width="0" points="947.78,-204.01 867.37,-204.01 867.37,-177.99 947.78,-177.99 947.78,-204.01"/>
<text xml:space="preserve" text-anchor="start" x="879.45" y="-188.65" font-family="Helvetica Neue,Helvetica,Arial" font-size="8.00" fill="#faf6f0">getElementById</text>
</g>
<!-- f7_b0&#45;&gt;f8_b0 -->
<g id="edge32" class="edge">
<title>f7_b0&#45;&gt;f8_b0</title>
<path fill="none" stroke="#2d4a7a" stroke-width="0.3" stroke-dasharray="5,2" d="M809.11,-196.18C824.21,-195.38 840.62,-194.5 855.6,-193.71"/>
<polygon fill="#2d4a7a" stroke="#2d4a7a" stroke-width="0.3" points="859.01,-193.53 855.6,-195.29 857.63,-193.6 855.51,-193.71 855.51,-193.71 855.51,-193.71 857.63,-193.6 855.43,-192.14 859.01,-193.53"/>
</g>
<!-- f2_b1 -->
<g id="node7" class="node">
<title>f2_b1</title>
<text xml:space="preserve" text-anchor="middle" x="241" y="-645.65" font-family="Helvetica Neue,Helvetica,Arial" font-size="8.00" fill="#8e8e8e">ret</text>
</g>
<!-- f3_b4 -->
<g id="node9" class="node">
<title>f3_b4</title>
<polygon fill="none" stroke="#8e8e8e" stroke-width="0.3" points="586.91,-453.76 446.5,-453.76 446.5,-384.24 586.91,-384.24 586.91,-453.76"/>
<text xml:space="preserve" text-anchor="start" x="458.58" y="-438.4" font-family="Helvetica Neue,Helvetica,Arial" font-size="8.00" fill="#2d2d2d">createElement</text>
<text xml:space="preserve" text-anchor="start" x="458.58" y="-424.9" font-family="Helvetica Neue,Helvetica,Arial" font-size="8.00" fill="#2d2d2d">createElement </text>
<text xml:space="preserve" text-anchor="start" x="512.58" y="-424.9" font-family="Helvetica Neue,Helvetica,Arial" font-size="8.00" fill="#8b7355">(</text>
<text xml:space="preserve" text-anchor="start" x="514.83" y="-424.9" font-family="Helvetica Neue,Helvetica,Arial" font-size="8.00" fill="#9b2335">&quot;cocosLoading&quot;</text>
<text xml:space="preserve" text-anchor="start" x="572.58" y="-424.9" font-family="Helvetica Neue,Helvetica,Arial" font-size="8.00" fill="#8b7355">)</text>
<text xml:space="preserve" text-anchor="start" x="458.58" y="-410.4" font-family="Helvetica Neue,Helvetica,Arial" font-size="8.00" fill="#2d2d2d">appendChild </text>
<text xml:space="preserve" text-anchor="start" x="505.83" y="-410.4" font-family="Helvetica Neue,Helvetica,Arial" font-size="8.00" fill="#8b7355">(</text>
<text xml:space="preserve" text-anchor="start" x="508.08" y="-410.4" font-family="Helvetica Neue,Helvetica,Arial" font-size="8.00" fill="#9b2335">&quot;image&quot;</text>
<text xml:space="preserve" text-anchor="start" x="537.33" y="-410.4" font-family="Helvetica Neue,Helvetica,Arial" font-size="8.00" fill="#8b7355">)</text>
<text xml:space="preserve" text-anchor="start" x="458.58" y="-394.9" font-family="Helvetica Neue,Helvetica,Arial" font-size="8.00" fill="#2d2d2d">createElement</text>
</g>
<!-- f3_b2&#45;&gt;f3_b4 -->
<g id="edge7" class="edge">
<title>f3_b2&#45;&gt;f3_b4</title>
<path fill="none" stroke="#8e8e8e" stroke-width="0.4" d="M361.35,-376C372.6,-379.14 408.45,-389.12 442.76,-398.68"/>
<polygon fill="#8e8e8e" stroke="#8e8e8e" stroke-width="0.4" points="446.04,-399.59 442.24,-400.17 444.82,-399.25 442.67,-398.65 442.67,-398.65 442.67,-398.65 444.82,-399.25 443.09,-397.14 446.04,-399.59"/>
</g>
<!-- f3_b6 -->
<g id="node11" class="node">
<title>f3_b6</title>
<polygon fill="none" stroke="#2d2d2d" stroke-width="0.3" points="637.31,-434.4 631.91,-429 637.31,-423.6 642.71,-429 637.31,-434.4"/>
</g>
<!-- f3_b4&#45;&gt;f3_b6 -->
<g id="edge8" class="edge">
<title>f3_b4&#45;&gt;f3_b6</title>
<path fill="none" stroke="#8e8e8e" stroke-width="0.4" d="M587.04,-424.85C603.77,-426.26 619.4,-427.57 628.4,-428.33"/>
<polygon fill="#8e8e8e" stroke="#8e8e8e" stroke-width="0.4" points="631.78,-428.62 628.16,-429.89 630.52,-428.51 628.29,-428.32 628.29,-428.32 628.29,-428.32 630.52,-428.51 628.42,-426.75 631.78,-428.62"/>
</g>
<!-- f3_b4&#45;&gt;n_createElement -->
<g id="edge12" class="edge">
<title>f3_b4&#45;&gt;n_createElement</title>
<path fill="none" stroke="#bf3f2f" stroke-width="0.3" stroke-dasharray="5,2" d="M560.44,-384.11C593.95,-359.14 642.96,-327.62 691.96,-314 751.84,-297.35 824.81,-302.4 868.38,-307.94"/>
<polygon fill="#bf3f2f" stroke="#bf3f2f" stroke-width="0.3" points="871.62,-308.36 867.95,-309.47 870.25,-308.18 868.15,-307.91 868.15,-307.91 868.15,-307.91 870.25,-308.18 868.36,-306.35 871.62,-308.36"/>
</g>
<!-- f3_b4&#45;&gt;n_appendChild -->
<g id="edge13" class="edge">
<title>f3_b4&#45;&gt;n_appendChild</title>
<path fill="none" stroke="#bf3f2f" stroke-width="0.3" stroke-dasharray="5,2" d="M548.7,-453.67C580.77,-486.7 634.21,-534.25 691.96,-554 748.38,-573.3 774.64,-584.08 826.12,-554 852.11,-538.81 839.46,-517.57 859.37,-495 866.82,-486.55 876.63,-478.88 885.38,-472.88"/>
<polygon fill="#bf3f2f" stroke="#bf3f2f" stroke-width="0.3" points="888.24,-470.96 886.21,-474.22 887.09,-471.73 885.34,-472.91 885.34,-472.91 885.34,-472.91 887.09,-471.73 884.46,-471.61 888.24,-470.96"/>
</g>
<!-- f3_b5 -->
<g id="node10" class="node">
<title>f3_b5</title>
<polygon fill="none" stroke="#8e8e8e" stroke-width="0.3" points="793,-536.26 717.09,-536.26 717.09,-437.74 793,-437.74 793,-536.26"/>
<text xml:space="preserve" text-anchor="start" x="729.17" y="-520.9" font-family="Helvetica Neue,Helvetica,Arial" font-size="8.00" fill="#2d2d2d">createElement</text>
<text xml:space="preserve" text-anchor="start" x="729.17" y="-506.4" font-family="Helvetica Neue,Helvetica,Arial" font-size="8.00" fill="#2d2d2d">push</text>
<text xml:space="preserve" text-anchor="start" x="729.17" y="-491.9" font-family="Helvetica Neue,Helvetica,Arial" font-size="8.00" fill="#2d2d2d">createElement</text>
<text xml:space="preserve" text-anchor="start" x="729.17" y="-477.4" font-family="Helvetica Neue,Helvetica,Arial" font-size="8.00" fill="#2d2d2d">appendChild</text>
<text xml:space="preserve" text-anchor="start" x="729.17" y="-463.9" font-family="Helvetica Neue,Helvetica,Arial" font-size="8.00" fill="#2d2d2d">ball </text>
<text xml:space="preserve" text-anchor="start" x="743.42" y="-463.9" font-family="Helvetica Neue,Helvetica,Arial" font-size="8.00" fill="#8b7355">(</text>
<text xml:space="preserve" text-anchor="start" x="745.67" y="-463.9" font-family="Helvetica Neue,Helvetica,Arial" font-size="8.00" fill="#8b7355">1</text>
<text xml:space="preserve" text-anchor="start" x="750.17" y="-463.9" font-family="Helvetica Neue,Helvetica,Arial" font-size="8.00" fill="#8b7355">)</text>
<text xml:space="preserve" text-anchor="start" x="729.17" y="-448.4" font-family="Helvetica Neue,Helvetica,Arial" font-size="8.00" fill="#2d2d2d">appendChild</text>
</g>
<!-- f3_b5&#45;&gt;f3_b6 -->
<g id="edge9" class="edge">
<title>f3_b5&#45;&gt;f3_b6</title>
<path fill="none" stroke="#8e8e8e" stroke-width="0.4" d="M717.1,-478.35C700.3,-473.4 680.65,-466.11 664.71,-456 655.56,-450.19 647.21,-440.62 642.45,-434.57"/>
<polygon fill="#8e8e8e" stroke="#8e8e8e" stroke-width="0.4" points="640.49,-432.01 643.87,-433.83 641.26,-433.01 642.62,-434.79 642.62,-434.79 642.62,-434.79 641.26,-433.01 641.36,-435.74 640.49,-432.01"/>
</g>
<!-- f3_b5&#45;&gt;n_createElement -->
<g id="edge14" class="edge">
<title>f3_b5&#45;&gt;n_createElement</title>
<path fill="none" stroke="#bf3f2f" stroke-width="0.3" stroke-dasharray="5,2" d="M793.14,-453.62C804.12,-443.2 815.92,-431.43 826.12,-420 853.98,-388.78 882.68,-348.69 897.1,-327.9"/>
<polygon fill="#bf3f2f" stroke="#bf3f2f" stroke-width="0.3" points="898.91,-325.27 898.21,-329.05 898.12,-326.41 896.92,-328.15 896.92,-328.15 896.92,-328.15 898.12,-326.41 895.62,-327.26 898.91,-325.27"/>
</g>
<!-- f3_b5&#45;&gt;n_appendChild -->
<g id="edge16" class="edge">
<title>f3_b5&#45;&gt;n_appendChild</title>
<path fill="none" stroke="#bf3f2f" stroke-width="0.3" stroke-dasharray="5,2" d="M792.87,-480.4C816.83,-476.1 847.89,-470.53 871.49,-466.29"/>
<polygon fill="#bf3f2f" stroke="#bf3f2f" stroke-width="0.3" points="874.86,-465.69 871.69,-467.86 873.49,-465.93 871.41,-466.31 871.41,-466.31 871.41,-466.31 873.49,-465.93 871.13,-464.76 874.86,-465.69"/>
</g>
<!-- n_push -->
<g id="node16" class="node">
<title>n_push</title>
<text xml:space="preserve" text-anchor="middle" x="907.58" y="-579.65" font-family="Helvetica Neue,Helvetica,Arial" font-size="8.00" fill="#bf3f2f">push</text>
</g>
<!-- f3_b5&#45;&gt;n_push -->
<g id="edge15" class="edge">
<title>f3_b5&#45;&gt;n_push</title>
<path fill="none" stroke="#bf3f2f" stroke-width="0.3" stroke-dasharray="5,2" d="M792.76,-510.68C812.46,-523.32 837.18,-539.1 859.37,-553 867.94,-558.37 877.42,-564.21 885.63,-569.24"/>
<polygon fill="#bf3f2f" stroke="#bf3f2f" stroke-width="0.3" points="888.29,-570.87 884.48,-570.38 887.1,-570.14 885.3,-569.04 885.3,-569.04 885.3,-569.04 887.1,-570.14 886.12,-567.7 888.29,-570.87"/>
</g>
<!-- n_ball -->
<g id="node17" class="node">
<title>n_ball</title>
<text xml:space="preserve" text-anchor="middle" x="907.58" y="-521.65" font-family="Helvetica Neue,Helvetica,Arial" font-size="8.00" fill="#bf3f2f">ball</text>
</g>
<!-- f3_b5&#45;&gt;n_ball -->
<g id="edge17" class="edge">
<title>f3_b5&#45;&gt;n_ball</title>
<path fill="none" stroke="#bf3f2f" stroke-width="0.3" stroke-dasharray="5,2" d="M792.87,-496.05C818.92,-502.45 853.36,-510.92 877.49,-516.85"/>
<polygon fill="#bf3f2f" stroke="#bf3f2f" stroke-width="0.3" points="880.62,-517.62 876.84,-518.31 879.27,-517.29 877.22,-516.78 877.22,-516.78 877.22,-516.78 879.27,-517.29 877.6,-515.26 880.62,-517.62"/>
</g>
<!-- f3_b6&#45;&gt;f3_b5 -->
<g id="edge11" class="edge">
<title>f3_b6&#45;&gt;f3_b5</title>
<path fill="none" stroke="#2d4a7a" stroke-width="0.4" d="M641.72,-429.86C647.61,-431.4 660.02,-434.87 669.96,-439.25 684.69,-445.74 700.18,-454.06 713.79,-461.94"/>
<polygon fill="#2d4a7a" stroke="#2d4a7a" stroke-width="0.4" points="716.79,-463.69 712.97,-463.28 715.7,-463.05 713.77,-461.92 713.77,-461.92 713.77,-461.92 715.7,-463.05 714.56,-460.56 716.79,-463.69"/>
<text xml:space="preserve" text-anchor="start" x="664.71" y="-441.4" font-family="Times,serif" font-size="8.00" fill="#2d4a7a">T</text>
</g>
<!-- f3_b7 -->
<g id="node12" class="node">
<title>f3_b7</title>
<polygon fill="none" stroke="#8e8e8e" stroke-width="0.3" points="818.12,-401.76 691.96,-401.76 691.96,-332.24 818.12,-332.24 818.12,-401.76"/>
<text xml:space="preserve" text-anchor="start" x="704.04" y="-386.4" font-family="Helvetica Neue,Helvetica,Arial" font-size="8.00" fill="#2d2d2d">createElement</text>
<text xml:space="preserve" text-anchor="start" x="704.04" y="-372.9" font-family="Helvetica Neue,Helvetica,Arial" font-size="8.00" fill="#2d2d2d">appendChild </text>
<text xml:space="preserve" text-anchor="start" x="751.29" y="-372.9" font-family="Helvetica Neue,Helvetica,Arial" font-size="8.00" fill="#8b7355">(</text>
<text xml:space="preserve" text-anchor="start" x="753.54" y="-372.9" font-family="Helvetica Neue,Helvetica,Arial" font-size="8.00" fill="#9b2335">&quot;LOADING...&quot;</text>
<text xml:space="preserve" text-anchor="start" x="803.79" y="-372.9" font-family="Helvetica Neue,Helvetica,Arial" font-size="8.00" fill="#8b7355">)</text>
<text xml:space="preserve" text-anchor="start" x="704.04" y="-357.4" font-family="Helvetica Neue,Helvetica,Arial" font-size="8.00" fill="#2d2d2d">appendChild</text>
<text xml:space="preserve" text-anchor="start" x="704.04" y="-342.9" font-family="Helvetica Neue,Helvetica,Arial" font-size="8.00" fill="#2d2d2d">appendChild</text>
</g>
<!-- f3_b6&#45;&gt;f3_b7 -->
<g id="edge10" class="edge">
<title>f3_b6&#45;&gt;f3_b7</title>
<path fill="none" stroke="#bf3f2f" stroke-width="0.4" d="M641.17,-427.47C648.31,-423.64 667.83,-413.19 688.67,-402.02"/>
<polygon fill="#bf3f2f" stroke="#bf3f2f" stroke-width="0.4" points="691.6,-400.45 689.25,-403.49 690.48,-401.05 688.51,-402.11 688.51,-402.11 688.51,-402.11 690.48,-401.05 687.77,-400.72 691.6,-400.45"/>
<text xml:space="preserve" text-anchor="start" x="665.09" y="-416.17" font-family="Times,serif" font-size="8.00" fill="#bf3f2f">F</text>
</g>
<!-- f3_b7&#45;&gt;n_createElement -->
<g id="edge18" class="edge">
<title>f3_b7&#45;&gt;n_createElement</title>
<path fill="none" stroke="#bf3f2f" stroke-width="0.3" stroke-dasharray="5,2" d="M818.14,-345.14C836.51,-338.67 855.96,-331.82 871.93,-326.2"/>
<polygon fill="#bf3f2f" stroke="#bf3f2f" stroke-width="0.3" points="875.15,-325.06 872.37,-327.71 873.84,-325.52 871.85,-326.23 871.85,-326.23 871.85,-326.23 873.84,-325.52 871.32,-324.74 875.15,-325.06"/>
</g>
<!-- f3_b7&#45;&gt;n_appendChild -->
<g id="edge19" class="edge">
<title>f3_b7&#45;&gt;n_appendChild</title>
<path fill="none" stroke="#bf3f2f" stroke-width="0.3" stroke-dasharray="5,2" d="M806.75,-401.71C817.66,-408.91 829.19,-416.33 840.12,-423 854.05,-431.5 870.01,-440.41 882.79,-447.36"/>
<polygon fill="#bf3f2f" stroke="#bf3f2f" stroke-width="0.3" points="885.65,-448.9 881.82,-448.62 884.44,-448.25 882.58,-447.24 882.58,-447.24 882.58,-447.24 884.44,-448.25 883.33,-445.85 885.65,-448.9"/>
</g>
<!-- f3_b8 -->
<g id="node13" class="node">
<title>f3_b8</title>
<text xml:space="preserve" text-anchor="middle" x="241" y="-466.65" font-family="Helvetica Neue,Helvetica,Arial" font-size="8.00" fill="#8e8e8e">ret</text>
</g>
<!-- f6_b0 -->
<g id="node19" class="node">
<title>f6_b0</title>
<polygon fill="#2d2d2d" stroke="#2d2d2d" stroke-width="0" points="543.71,-112.01 489.71,-112.01 489.71,-89.99 543.71,-89.99 543.71,-112.01"/>
<text xml:space="preserve" text-anchor="start" x="507.71" y="-98.65" font-family="Helvetica Neue,Helvetica,Arial" font-size="8.00" fill="#faf6f0">entry</text>
</g>
<!-- f5_b0&#45;&gt;f6_b0 -->
<g id="edge21" class="edge">
<title>f5_b0&#45;&gt;f6_b0</title>
<path fill="none" stroke="#2d4a7a" stroke-width="0.3" stroke-dasharray="5,2" d="M383.48,-117.74C409.18,-114.49 448.98,-109.45 478.2,-105.75"/>
<polygon fill="#2d4a7a" stroke="#2d4a7a" stroke-width="0.3" points="481.34,-105.35 478.07,-107.35 479.97,-105.52 477.87,-105.79 477.87,-105.79 477.87,-105.79 479.97,-105.52 477.67,-104.23 481.34,-105.35"/>
</g>
<!-- f6_b2 -->
<g id="node20" class="node">
<title>f6_b2</title>
<polygon fill="none" stroke="#2d2d2d" stroke-width="0.3" points="637.31,-106.4 631.91,-101 637.31,-95.6 642.71,-101 637.31,-106.4"/>
</g>
<!-- f6_b0&#45;&gt;f6_b2 -->
<g id="edge22" class="edge">
<title>f6_b0&#45;&gt;f6_b2</title>
<path fill="none" stroke="#8e8e8e" stroke-width="0.4" d="M543.44,-101C570.32,-101 610.92,-101 628.14,-101"/>
<polygon fill="#8e8e8e" stroke="#8e8e8e" stroke-width="0.4" points="631.5,-101 628,-102.58 630.24,-101 628,-101 628,-101 628,-101 630.24,-101 628,-99.43 631.5,-101"/>
</g>
<!-- f6_b3 -->
<g id="node21" class="node">
<title>f6_b3</title>
<text xml:space="preserve" text-anchor="middle" x="755.04" y="-48.65" font-family="Helvetica Neue,Helvetica,Arial" font-size="8.00" fill="#8e8e8e">ret</text>
</g>
<!-- f6_b2&#45;&gt;f6_b3 -->
<g id="edge23" class="edge">
<title>f6_b2&#45;&gt;f6_b3</title>
<path fill="none" stroke="#2d4a7a" stroke-width="0.4" d="M640.64,-99C645.07,-95.27 655.12,-87.21 664.71,-82.25 683.87,-72.35 706.86,-64.39 724.72,-58.98"/>
<polygon fill="#2d4a7a" stroke="#2d4a7a" stroke-width="0.4" points="727.76,-58.07 724.86,-60.58 726.55,-58.43 724.4,-59.07 724.4,-59.07 724.4,-59.07 726.55,-58.43 723.95,-57.56 727.76,-58.07"/>
<text xml:space="preserve" text-anchor="start" x="664.71" y="-84.4" font-family="Times,serif" font-size="8.00" fill="#2d4a7a">T</text>
</g>
<!-- f6_b4 -->
<g id="node22" class="node">
<title>f6_b4</title>
<polygon fill="none" stroke="#2d2d2d" stroke-width="0.3" points="755.04,-108.4 749.64,-103 755.04,-97.6 760.44,-103 755.04,-108.4"/>
</g>
<!-- f6_b2&#45;&gt;f6_b4 -->
<g id="edge24" class="edge">
<title>f6_b2&#45;&gt;f6_b4</title>
<path fill="none" stroke="#bf3f2f" stroke-width="0.4" d="M642.71,-101.08C659.96,-101.37 723.24,-102.47 745.9,-102.86"/>
<polygon fill="#bf3f2f" stroke="#bf3f2f" stroke-width="0.4" points="749.15,-102.92 745.63,-104.43 747.89,-102.89 745.65,-102.85 745.65,-102.85 745.65,-102.85 747.89,-102.89 745.68,-101.28 749.15,-102.92"/>
<text xml:space="preserve" text-anchor="start" x="665.09" y="-103.69" font-family="Times,serif" font-size="8.00" fill="#bf3f2f">F</text>
</g>
<!-- f6_b5 -->
<g id="node23" class="node">
<title>f6_b5</title>
<polygon fill="none" stroke="#8e8e8e" stroke-width="0.3" points="934.58,-50.01 880.58,-50.01 880.58,-23.99 934.58,-23.99 934.58,-50.01"/>
<text xml:space="preserve" text-anchor="start" x="901.58" y="-34.65" font-family="Helvetica Neue,Helvetica,Arial" font-size="8.00" fill="#8b7355">ball</text>
</g>
<!-- f6_b4&#45;&gt;f6_b5 -->
<g id="edge25" class="edge">
<title>f6_b4&#45;&gt;f6_b5</title>
<path fill="none" stroke="#2d4a7a" stroke-width="0.4" d="M759.62,-102.06C770.08,-99.28 801.39,-90.57 826.12,-80 845.07,-71.9 865.55,-60.92 881.1,-52.08"/>
<polygon fill="#2d4a7a" stroke="#2d4a7a" stroke-width="0.4" points="884.12,-50.36 881.87,-53.46 883.03,-50.98 881.08,-52.09 881.08,-52.09 881.08,-52.09 883.03,-50.98 880.3,-50.73 884.12,-50.36"/>
<text xml:space="preserve" text-anchor="start" x="840.12" y="-74.91" font-family="Times,serif" font-size="8.00" fill="#2d4a7a">T</text>
</g>
<!-- f6_b6 -->
<g id="node24" class="node">
<title>f6_b6</title>
<polygon fill="none" stroke="#8e8e8e" stroke-width="0.3" points="934.58,-112.01 880.58,-112.01 880.58,-85.99 934.58,-85.99 934.58,-112.01"/>
<text xml:space="preserve" text-anchor="start" x="901.58" y="-96.65" font-family="Helvetica Neue,Helvetica,Arial" font-size="8.00" fill="#8b7355">ball</text>
</g>
<!-- f6_b4&#45;&gt;f6_b6 -->
<g id="edge26" class="edge">
<title>f6_b4&#45;&gt;f6_b6</title>
<path fill="none" stroke="#bf3f2f" stroke-width="0.4" d="M760.38,-102.88C777.24,-102.44 839.28,-100.79 876.91,-99.79"/>
<polygon fill="#bf3f2f" stroke="#bf3f2f" stroke-width="0.4" points="879.98,-99.71 876.53,-101.37 878.72,-99.74 876.48,-99.8 876.48,-99.8 876.48,-99.8 878.72,-99.74 876.44,-98.23 879.98,-99.71"/>
<text xml:space="preserve" text-anchor="start" x="840.5" y="-102.91" font-family="Times,serif" font-size="8.00" fill="#bf3f2f">F</text>
</g>
<!-- f6_b7 -->
<g id="node25" class="node">
<title>f6_b7</title>
<polygon fill="none" stroke="#2d2d2d" stroke-width="0.3" points="1045.86,-59.4 1040.46,-54 1045.86,-48.6 1051.26,-54 1045.86,-59.4"/>
</g>
<!-- f6_b5&#45;&gt;f6_b7 -->
<g id="edge27" class="edge">
<title>f6_b5&#45;&gt;f6_b7</title>
<path fill="none" stroke="#8e8e8e" stroke-width="0.4" d="M934.53,-40.24C966.12,-44.18 1017.66,-50.61 1037.11,-53.03"/>
<polygon fill="#8e8e8e" stroke="#8e8e8e" stroke-width="0.4" points="1040.46,-53.45 1036.79,-54.58 1039.21,-53.29 1036.99,-53.02 1036.99,-53.02 1036.99,-53.02 1039.21,-53.29 1037.18,-51.46 1040.46,-53.45"/>
</g>
<!-- f6_b6&#45;&gt;f6_b7 -->
<g id="edge28" class="edge">
<title>f6_b6&#45;&gt;f6_b7</title>
<path fill="none" stroke="#8e8e8e" stroke-width="0.4" d="M934.53,-90.43C966.7,-79.81 1019.54,-62.36 1038.13,-56.22"/>
<polygon fill="#8e8e8e" stroke="#8e8e8e" stroke-width="0.4" points="1041.28,-55.18 1038.45,-57.78 1040.08,-55.58 1037.95,-56.28 1037.95,-56.28 1037.95,-56.28 1040.08,-55.58 1037.46,-54.78 1041.28,-55.18"/>
</g>
<!-- f6_b10 -->
<g id="node26" class="node">
<title>f6_b10</title>
<text xml:space="preserve" text-anchor="middle" x="1166.69" y="-51.65" font-family="Helvetica Neue,Helvetica,Arial" font-size="8.00" fill="#8e8e8e">ret</text>
</g>
<!-- f6_b7&#45;&gt;f6_b10 -->
<g id="edge29" class="edge">
<title>f6_b7&#45;&gt;f6_b10</title>
<path fill="none" stroke="#8e8e8e" stroke-width="0.4" d="M1051.37,-54C1065.05,-54 1106.85,-54 1135.93,-54"/>
<polygon fill="#8e8e8e" stroke="#8e8e8e" stroke-width="0.4" points="1139.27,-54 1135.77,-55.58 1138.01,-54 1135.77,-54 1135.77,-54 1135.77,-54 1138.01,-54 1135.77,-52.43 1139.27,-54"/>
</g>
<!-- f8_b1 -->
<g id="node28" class="node">
<title>f8_b1</title>
<polygon fill="none" stroke="#8e8e8e" stroke-width="0.3" points="1094.69,-181.01 997.03,-181.01 997.03,-154.99 1094.69,-154.99 1094.69,-181.01"/>
<text xml:space="preserve" text-anchor="start" x="1009.11" y="-165.65" font-family="Helvetica Neue,Helvetica,Arial" font-size="8.00" fill="#8b7355">document.body.style</text>
</g>
<!-- f8_b0&#45;&gt;f8_b1 -->
<g id="edge33" class="edge">
<title>f8_b0&#45;&gt;f8_b1</title>
<path fill="none" stroke="#2d4a7a" stroke-width="0.4" d="M947.63,-184.41C961.84,-182.01 978.13,-179.26 993.26,-176.71"/>
<polygon fill="#2d4a7a" stroke="#2d4a7a" stroke-width="0.4" points="996.6,-176.14 993.41,-178.28 995.36,-176.35 993.15,-176.73 993.15,-176.73 993.15,-176.73 995.36,-176.35 992.89,-175.17 996.6,-176.14"/>
<text xml:space="preserve" text-anchor="start" x="969.78" y="-182.34" font-family="Times,serif" font-size="8.00" fill="#2d4a7a">T</text>
</g>
<!-- f8_b2 -->
<g id="node29" class="node">
<title>f8_b2</title>
<text xml:space="preserve" text-anchor="middle" x="1166.69" y="-226.65" font-family="Helvetica Neue,Helvetica,Arial" font-size="8.00" fill="#8e8e8e">ret</text>
</g>
<!-- f8_b0&#45;&gt;f8_b2 -->
<g id="edge34" class="edge">
<title>f8_b0&#45;&gt;f8_b2</title>
<path fill="none" stroke="#bf3f2f" stroke-width="0.4" d="M947.63,-196.77C999.41,-204.43 1089.67,-217.76 1136.15,-224.63"/>
<polygon fill="#bf3f2f" stroke="#bf3f2f" stroke-width="0.4" points="1139.49,-225.13 1135.79,-226.17 1138.24,-224.94 1136.02,-224.62 1136.02,-224.62 1136.02,-224.62 1138.24,-224.94 1136.25,-223.06 1139.49,-225.13"/>
<text xml:space="preserve" text-anchor="start" x="1043.61" y="-220.15" font-family="Times,serif" font-size="8.00" fill="#bf3f2f">F</text>
</g>
<!-- n_getElementById -->
<g id="node31" class="node">
<title>n_getElementById</title>
<text xml:space="preserve" text-anchor="middle" x="1045.86" y="-307.65" font-family="Helvetica Neue,Helvetica,Arial" font-size="8.00" fill="#bf3f2f">getElementById</text>
</g>
<!-- f8_b0&#45;&gt;n_getElementById -->
<g id="edge36" class="edge">
<title>f8_b0&#45;&gt;n_getElementById</title>
<path fill="none" stroke="#bf3f2f" stroke-width="0.3" stroke-dasharray="5,2" d="M927.9,-203.79C934.72,-208.91 942.1,-215.21 947.78,-222 961.06,-237.86 958.12,-245.92 969.78,-263 980.31,-278.43 981.45,-284.69 997.03,-295 999.43,-296.59 1002.01,-298.02 1004.68,-299.3"/>
<polygon fill="#bf3f2f" stroke="#bf3f2f" stroke-width="0.3" points="1007.51,-300.59 1003.68,-300.57 1006.25,-300.02 1004.33,-299.14 1004.33,-299.14 1004.33,-299.14 1006.25,-300.02 1004.98,-297.71 1007.51,-300.59"/>
</g>
<!-- f8_b1&#45;&gt;f8_b2 -->
<g id="edge35" class="edge">
<title>f8_b1&#45;&gt;f8_b2</title>
<path fill="none" stroke="#8e8e8e" stroke-width="0.4" d="M1072.35,-181.09C1092.72,-191.54 1121.1,-206.11 1141.2,-216.43"/>
<polygon fill="#8e8e8e" stroke="#8e8e8e" stroke-width="0.4" points="1144.17,-217.95 1140.34,-217.75 1143.04,-217.38 1141.05,-216.35 1141.05,-216.35 1141.05,-216.35 1143.04,-217.38 1141.77,-214.95 1144.17,-217.95"/>
</g>
<!-- f8_b3 -->
<g id="node30" class="node">
<title>f8_b3</title>
<text xml:space="preserve" text-anchor="middle" x="907.58" y="-248.65" font-family="Helvetica Neue,Helvetica,Arial" font-size="8.00" fill="#8e8e8e">ret</text>
</g>
</g>
</svg>
