<?xml version="1.0" encoding="UTF-8" standalone="no"?>
<!DOCTYPE svg PUBLIC "-//W3C//DTD SVG 1.1//EN"
 "http://www.w3.org/Graphics/SVG/1.1/DTD/svg11.dtd">
<!-- Generated by graphviz version 14.1.1 (20251213.1925)
 -->
<!-- Title: callgraph Pages: 1 -->
<svg width="681pt" height="334pt"
 viewBox="0.00 0.00 681.00 334.00" xmlns="http://www.w3.org/2000/svg" xmlns:xlink="http://www.w3.org/1999/xlink">
<g id="graph0" class="graph" transform="scale(1 1) rotate(0) translate(4 330.1)">
<title>callgraph</title>
<polygon fill="#f5f5f5" stroke="none" points="-4,4 -4,-330.1 677.34,-330.1 677.34,4 -4,4"/>
<text xml:space="preserve" text-anchor="start" x="8" y="-314.5" font-family="Helvetica Neue,Helvetica" font-size="8.00" fill="#1a1a1a">D:\projects\SAniMatchRS\frameworks\runtime&#45;src\proj.android\app\assets\res\loading.js</text>
<!-- n_main -->
<g id="node1" class="node">
<title>n_main</title>
<polygon fill="#0b3d91" stroke="#1a1a1a" stroke-width="0" points="54,-123.6 0,-123.6 0,-102 54,-102 54,-123.6"/>
<text xml:space="preserve" text-anchor="middle" x="27" y="-109.88" font-family="Helvetica Neue,Helvetica,Arial" font-size="9.00" fill="white">main</text>
</g>
<!-- n_anon_00230 -->
<g id="node2" class="node">
<title>n_anon_00230</title>
<polygon fill="white" stroke="#9e9e9e" stroke-width="0.5" stroke-dasharray="5,2" points="153,-123.6 99,-123.6 99,-102 153,-102 153,-123.6"/>
<text xml:space="preserve" text-anchor="middle" x="126" y="-109.88" font-family="Helvetica Neue,Helvetica,Arial" font-size="9.00" fill="#9e9e9e">anon#0</text>
</g>
<!-- n_main&#45;&gt;n_anon_00230 -->
<g id="edge1" class="edge">
<title>n_main&#45;&gt;n_anon_00230</title>
<path fill="none" stroke="#9e9e9e" stroke-width="0.5" d="M53.99,-112.8C66.17,-112.8 80.78,-112.8 93.57,-112.8"/>
<polygon fill="#9e9e9e" stroke="#9e9e9e" stroke-width="0.5" points="98.32,-112.8 93.32,-115.05 96.43,-112.8 93.32,-112.8 93.32,-112.8 93.32,-112.8 96.43,-112.8 93.32,-110.55 98.32,-112.8"/>
</g>
<!-- n_createStyle -->
<g id="node3" class="node">
<title>n_createStyle</title>
<polygon fill="white" stroke="#1a1a1a" stroke-width="0.5" points="267.03,-255.6 205.5,-255.6 205.5,-234 267.03,-234 267.03,-255.6"/>
<text xml:space="preserve" text-anchor="middle" x="236.26" y="-241.88" font-family="Helvetica Neue,Helvetica,Arial" font-size="9.00" fill="#1a1a1a">createStyle</text>
</g>
<!-- n_anon_00230&#45;&gt;n_createStyle -->
<g id="edge2" class="edge">
<title>n_anon_00230&#45;&gt;n_createStyle</title>
<path fill="none" stroke="#9e9e9e" stroke-width="0.5" d="M132.51,-123.67C143.17,-144 168.22,-188.44 198,-218.8 202.23,-223.11 207.26,-227.17 212.24,-230.74"/>
<polygon fill="#9e9e9e" stroke="#9e9e9e" stroke-width="0.5" points="216.27,-233.53 210.88,-232.53 214.72,-232.45 212.16,-230.68 212.16,-230.68 212.16,-230.68 214.72,-232.45 213.44,-228.83 216.27,-233.53"/>
</g>
<!-- n_createDom -->
<g id="node4" class="node">
<title>n_createDom</title>
<polygon fill="white" stroke="#1a1a1a" stroke-width="0.5" points="266.28,-204.6 206.25,-204.6 206.25,-183 266.28,-183 266.28,-204.6"/>
<text xml:space="preserve" text-anchor="middle" x="236.26" y="-190.88" font-family="Helvetica Neue,Helvetica,Arial" font-size="9.00" fill="#1a1a1a">createDom</text>
</g>
<!-- n_anon_00230&#45;&gt;n_createDom -->
<g id="edge3" class="edge">
<title>n_anon_00230&#45;&gt;n_createDom</title>
<path fill="none" stroke="#9e9e9e" stroke-width="0.5" d="M141.7,-123.84C151.2,-130.97 163.82,-140.44 175,-148.8 188.97,-159.25 204.77,-171.05 216.69,-179.94"/>
<polygon fill="#9e9e9e" stroke="#9e9e9e" stroke-width="0.5" points="220.4,-182.72 215.05,-181.53 218.89,-181.58 216.39,-179.73 216.39,-179.73 216.39,-179.73 218.89,-181.58 217.74,-177.92 220.4,-182.72"/>
</g>
<!-- n_startAnimation -->
<g id="node5" class="node">
<title>n_startAnimation</title>
<polygon fill="white" stroke="#1a1a1a" stroke-width="0.5" points="274.53,-72.6 198,-72.6 198,-51 274.53,-51 274.53,-72.6"/>
<text xml:space="preserve" text-anchor="middle" x="236.26" y="-58.88" font-family="Helvetica Neue,Helvetica,Arial" font-size="9.00" fill="#1a1a1a">startAnimation</text>
</g>
<!-- n_anon_00230&#45;&gt;n_startAnimation -->
<g id="edge8" class="edge">
<title>n_anon_00230&#45;&gt;n_startAnimation</title>
<path fill="none" stroke="#9e9e9e" stroke-width="0.5" d="M150.23,-101.86C166.92,-93.99 189.52,-83.35 207.22,-75.01"/>
<polygon fill="#9e9e9e" stroke="#9e9e9e" stroke-width="0.5" points="211.53,-72.98 207.96,-77.15 209.82,-73.79 207,-75.11 207,-75.11 207,-75.11 209.82,-73.79 206.04,-73.08 211.53,-72.98"/>
</g>
<!-- n_anon_00233 -->
<g id="node8" class="node">
<title>n_anon_00233</title>
<polygon fill="white" stroke="#9e9e9e" stroke-width="0.5" stroke-dasharray="5,2" points="263.26,-123.6 209.26,-123.6 209.26,-102 263.26,-102 263.26,-123.6"/>
<text xml:space="preserve" text-anchor="middle" x="236.26" y="-109.88" font-family="Helvetica Neue,Helvetica,Arial" font-size="9.00" fill="#9e9e9e">anon#3</text>
</g>
<!-- n_anon_00230&#45;&gt;n_anon_00233 -->
<g id="edge11" class="edge">
<title>n_anon_00230&#45;&gt;n_anon_00233</title>
<path fill="none" stroke="#9e9e9e" stroke-width="0.5" d="M153.21,-103.33C168.5,-101.64 187.89,-101.47 203.98,-102.84"/>
<polygon fill="#9e9e9e" stroke="#9e9e9e" stroke-width="0.5" points="208.69,-103.3 203.5,-105.05 206.81,-103.11 203.72,-102.81 203.72,-102.81 203.72,-102.81 206.81,-103.11 203.93,-100.57 208.69,-103.3"/>
</g>
<!-- n_getElementById -->
<g id="node13" class="node">
<title>n_getElementById</title>
<text xml:space="preserve" text-anchor="middle" x="236.26" y="-8.45" font-family="Helvetica Neue,Helvetica,Arial" font-size="8.00" fill="#fc3d21">getElementById</text>
</g>
<!-- n_anon_00230&#45;&gt;n_getElementById -->
<g id="edge15" class="edge">
<title>n_anon_00230&#45;&gt;n_getElementById</title>
<path fill="none" stroke="#fc3d21" stroke-width="0.4" stroke-dasharray="5,2" d="M135.99,-101.8C148.88,-86.37 173.72,-57.85 198,-36.8 202.94,-32.52 208.58,-28.29 213.95,-24.52"/>
<polygon fill="#fc3d21" stroke="#fc3d21" stroke-width="0.4" points="217.98,-21.75 215.14,-26.44 216.32,-22.89 213.86,-24.59 213.86,-24.59 213.86,-24.59 216.32,-22.89 212.59,-22.73 217.98,-21.75"/>
</g>
<!-- n_createElement -->
<g id="node9" class="node">
<title>n_createElement</title>
<text xml:space="preserve" text-anchor="middle" x="441.17" y="-99.45" font-family="Helvetica Neue,Helvetica,Arial" font-size="8.00" fill="#fc3d21">createElement</text>
</g>
<!-- n_createDom&#45;&gt;n_createElement -->
<g id="edge4" class="edge">
<title>n_createDom&#45;&gt;n_createElement</title>
<path fill="none" stroke="#fc3d21" stroke-width="0.4" stroke-dasharray="5,2" d="M261.34,-182.89C298.96,-165.82 371.55,-132.91 411.71,-114.7"/>
<polygon fill="#fc3d21" stroke="#fc3d21" stroke-width="0.4" points="416,-112.76 412.37,-116.87 414.17,-113.59 411.44,-114.82 411.44,-114.82 411.44,-114.82 414.17,-113.59 410.52,-112.78 416,-112.76"/>
<text xml:space="preserve" text-anchor="start" x="296.53" y="-169.22" font-family="Helvetica Neue,Helvetica" font-size="7.00" fill="#00695c"> (</text>
<text xml:space="preserve" text-anchor="start" x="300.28" y="-169.22" font-family="Helvetica Neue,Helvetica" font-size="7.00" fill="#d84315">&quot;cocosLoading&quot;</text>
<text xml:space="preserve" text-anchor="start" x="349.78" y="-169.22" font-family="Helvetica Neue,Helvetica" font-size="7.00" fill="#00695c">, 5)</text>
</g>
<!-- n_appendChild -->
<g id="node10" class="node">
<title>n_appendChild</title>
<text xml:space="preserve" text-anchor="middle" x="441.17" y="-178.45" font-family="Helvetica Neue,Helvetica,Arial" font-size="8.00" fill="#fc3d21">appendChild</text>
</g>
<!-- n_createDom&#45;&gt;n_appendChild -->
<g id="edge5" class="edge">
<title>n_createDom&#45;&gt;n_appendChild</title>
<path fill="none" stroke="#fc3d21" stroke-width="0.4" stroke-dasharray="5,2" d="M266.34,-191.94C302.94,-189.59 365.76,-185.57 405.02,-183.05"/>
<polygon fill="#fc3d21" stroke="#fc3d21" stroke-width="0.4" points="409.67,-182.75 404.83,-185.32 407.67,-182.88 404.68,-183.07 404.68,-183.07 404.68,-183.07 407.67,-182.88 404.54,-180.83 409.67,-182.75"/>
<text xml:space="preserve" text-anchor="start" x="313.03" y="-192.56" font-family="Helvetica Neue,Helvetica" font-size="7.00" fill="#00695c"> (</text>
<text xml:space="preserve" text-anchor="start" x="316.78" y="-192.56" font-family="Helvetica Neue,Helvetica" font-size="7.00" fill="#d84315">&quot;image&quot;</text>
<text xml:space="preserve" text-anchor="start" x="341.53" y="-192.56" font-family="Helvetica Neue,Helvetica" font-size="7.00" fill="#00695c">)</text>
</g>
<!-- n_push -->
<g id="node11" class="node">
<title>n_push</title>
<text xml:space="preserve" text-anchor="middle" x="441.17" y="-294.45" font-family="Helvetica Neue,Helvetica,Arial" font-size="8.00" fill="#fc3d21">push</text>
</g>
<!-- n_createDom&#45;&gt;n_push -->
<g id="edge6" class="edge">
<title>n_createDom&#45;&gt;n_push</title>
<path fill="none" stroke="#fc3d21" stroke-width="0.4" stroke-dasharray="5,2" d="M253.92,-204.75C260.48,-209.23 267.99,-214.58 274.53,-219.8 284.86,-228.04 285.32,-232.81 296.53,-239.8 332.57,-262.29 378.98,-278.76 409.14,-288.06"/>
<polygon fill="#fc3d21" stroke="#fc3d21" stroke-width="0.4" points="413.74,-289.46 408.3,-290.16 411.82,-288.87 408.96,-288 408.96,-288 408.96,-288 411.82,-288.87 409.61,-285.85 413.74,-289.46"/>
</g>
<!-- n_ball -->
<g id="node12" class="node">
<title>n_ball</title>
<text xml:space="preserve" text-anchor="middle" x="441.17" y="-243.45" font-family="Helvetica Neue,Helvetica,Arial" font-size="8.00" fill="#fc3d21">ball</text>
</g>
<!-- n_createDom&#45;&gt;n_ball -->
<g id="edge7" class="edge">
<title>n_createDom&#45;&gt;n_ball</title>
<path fill="none" stroke="#fc3d21" stroke-width="0.4" stroke-dasharray="5,2" d="M266.34,-201.25C304.3,-210.98 370.48,-227.94 409.31,-237.89"/>
<polygon fill="#fc3d21" stroke="#fc3d21" stroke-width="0.4" points="413.89,-239.07 408.49,-240 411.94,-238.57 409.05,-237.82 409.05,-237.82 409.05,-237.82 411.94,-238.57 409.61,-235.65 413.89,-239.07"/>
<text xml:space="preserve" text-anchor="start" x="323.53" y="-226.06" font-family="Helvetica Neue,Helvetica" font-size="7.00" fill="#00695c"> (1)</text>
</g>
<!-- n_startAnimation_002fanimation -->
<g id="node6" class="node">
<title>n_startAnimation_002fanimation</title>
<polygon fill="white" stroke="#1a1a1a" stroke-width="0.5" points="500.81,-46.6 381.53,-46.6 381.53,-25 500.81,-25 500.81,-46.6"/>
<text xml:space="preserve" text-anchor="middle" x="441.17" y="-32.88" font-family="Helvetica Neue,Helvetica,Arial" font-size="9.00" fill="#1a1a1a">startAnimation/animation</text>
</g>
<!-- n_startAnimation&#45;&gt;n_startAnimation_002fanimation -->
<g id="edge9" class="edge">
<title>n_startAnimation&#45;&gt;n_startAnimation_002fanimation</title>
<path fill="none" stroke="#9e9e9e" stroke-width="0.5" d="M274.48,-57.03C302.83,-53.4 342.53,-48.31 375.97,-44.03"/>
<polygon fill="#9e9e9e" stroke="#9e9e9e" stroke-width="0.5" points="380.68,-43.42 376,-46.29 378.8,-43.66 375.72,-44.06 375.72,-44.06 375.72,-44.06 378.8,-43.66 375.43,-41.83 380.68,-43.42"/>
</g>
<!-- n_startAnimation_002fanimation_002f_003c -->
<g id="node7" class="node">
<title>n_startAnimation_002fanimation_002f_003c</title>
<polygon fill="white" stroke="#1a1a1a" stroke-width="0.5" points="673.34,-46.6 545.81,-46.6 545.81,-25 673.34,-25 673.34,-46.6"/>
<text xml:space="preserve" text-anchor="middle" x="609.57" y="-32.88" font-family="Helvetica Neue,Helvetica,Arial" font-size="9.00" fill="#1a1a1a">startAnimation/animation/&lt;</text>
</g>
<!-- n_startAnimation_002fanimation&#45;&gt;n_startAnimation_002fanimation_002f_003c -->
<g id="edge10" class="edge">
<title>n_startAnimation_002fanimation&#45;&gt;n_startAnimation_002fanimation_002f_003c</title>
<path fill="none" stroke="#9e9e9e" stroke-width="0.5" d="M500.84,-35.8C513.53,-35.8 527.06,-35.8 540.09,-35.8"/>
<polygon fill="#9e9e9e" stroke="#9e9e9e" stroke-width="0.5" points="545.03,-35.8 540.03,-38.05 543.14,-35.8 540.03,-35.8 540.03,-35.8 540.03,-35.8 543.14,-35.8 540.03,-33.55 545.03,-35.8"/>
</g>
<!-- n_anon_00233&#45;&gt;n_anon_00230 -->
<g id="edge14" class="edge">
<title>n_anon_00233&#45;&gt;n_anon_00230</title>
<path fill="none" stroke="#9e9e9e" stroke-width="0.5" d="M209.3,-122.24C194.05,-123.95 174.67,-124.13 158.54,-122.79"/>
<polygon fill="#9e9e9e" stroke="#9e9e9e" stroke-width="0.5" points="153.81,-122.33 159.01,-120.57 155.7,-122.51 158.79,-122.81 158.79,-122.81 158.79,-122.81 155.7,-122.51 158.57,-125.05 153.81,-122.33"/>
</g>
<!-- n_anon_00233&#45;&gt;n_createElement -->
<g id="edge12" class="edge">
<title>n_anon_00233&#45;&gt;n_createElement</title>
<path fill="none" stroke="#fc3d21" stroke-width="0.4" stroke-dasharray="5,2" d="M256.59,-101.77C267.85,-95.99 282.55,-89.51 296.53,-86.55 331.64,-79.12 372.38,-84.76 401.48,-91.18"/>
<polygon fill="#fc3d21" stroke="#fc3d21" stroke-width="0.4" points="406.3,-92.28 400.93,-93.36 404.34,-91.83 401.43,-91.17 401.43,-91.17 401.43,-91.17 404.34,-91.83 401.93,-88.98 406.3,-92.28"/>
<text xml:space="preserve" text-anchor="start" x="314.9" y="-89.15" font-family="Helvetica Neue,Helvetica" font-size="7.00" fill="#00695c"> (</text>
<text xml:space="preserve" text-anchor="start" x="318.65" y="-89.15" font-family="Helvetica Neue,Helvetica" font-size="7.00" fill="#d84315">&quot;#000&quot;</text>
<text xml:space="preserve" text-anchor="start" x="339.65" y="-89.15" font-family="Helvetica Neue,Helvetica" font-size="7.00" fill="#00695c">)</text>
</g>
<!-- n_anon_00233&#45;&gt;n_appendChild -->
<g id="edge13" class="edge">
<title>n_anon_00233&#45;&gt;n_appendChild</title>
<path fill="none" stroke="#fc3d21" stroke-width="0.4" stroke-dasharray="5,2" d="M263.28,-113.9C288.55,-115.65 327.65,-120.16 359.53,-131.8 382.74,-140.27 406.59,-155.77 422.27,-167.07"/>
<polygon fill="#fc3d21" stroke="#fc3d21" stroke-width="0.4" points="426.08,-169.85 420.71,-168.72 424.45,-168.67 422.04,-166.9 422.04,-166.9 422.04,-166.9 424.45,-168.67 423.37,-165.09 426.08,-169.85"/>
</g>
</g>
</svg>
