<?xml version="1.0" encoding="UTF-8" standalone="no"?>
<!DOCTYPE svg PUBLIC "-//W3C//DTD SVG 1.1//EN"
 "http://www.w3.org/Graphics/SVG/1.1/DTD/svg11.dtd">
<!-- Generated by graphviz version 14.1.1 (20251213.1925)
 -->
<!-- Title: callgraph Pages: 1 -->
<svg width="827pt" height="1266pt"
 viewBox="0.00 0.00 827.00 1266.00" xmlns="http://www.w3.org/2000/svg" xmlns:xlink="http://www.w3.org/1999/xlink">
<g id="graph0" class="graph" transform="scale(1 1) rotate(0) translate(4 1262.1)">
<title>callgraph</title>
<polygon fill="#f5f5f5" stroke="none" points="-4,4 -4,-1262.1 822.84,-1262.1 822.84,4 -4,4"/>
<text xml:space="preserve" text-anchor="start" x="8" y="-1246.5" font-family="Helvetica Neue,Helvetica" font-size="8.00" fill="#1a1a1a">D:\projects\SAniMatchRS\frameworks\runtime&#45;src\proj.android\app\assets\script\studio\parsers\compatible.js</text>
<!-- n_main -->
<g id="node1" class="node">
<title>n_main</title>
<polygon fill="#0b3d91" stroke="#1a1a1a" stroke-width="0" points="54,-665.6 0,-665.6 0,-644 54,-644 54,-665.6"/>
<text xml:space="preserve" text-anchor="middle" x="27" y="-651.88" font-family="Helvetica Neue,Helvetica,Arial" font-size="9.00" fill="white">main</text>
</g>
<!-- n_anon_00230 -->
<g id="node2" class="node">
<title>n_anon_00230</title>
<polygon fill="white" stroke="#9e9e9e" stroke-width="0.5" stroke-dasharray="5,2" points="153,-309.6 99,-309.6 99,-288 153,-288 153,-309.6"/>
<text xml:space="preserve" text-anchor="middle" x="126" y="-295.88" font-family="Helvetica Neue,Helvetica,Arial" font-size="9.00" fill="#9e9e9e">anon#0</text>
</g>
<!-- n_main&#45;&gt;n_anon_00230 -->
<g id="edge1" class="edge">
<title>n_main&#45;&gt;n_anon_00230</title>
<path fill="none" stroke="#9e9e9e" stroke-width="0.5" d="M30.9,-644.15C44.73,-593.39 103.96,-376.01 120.62,-314.86"/>
<polygon fill="#9e9e9e" stroke="#9e9e9e" stroke-width="0.5" points="121.85,-310.35 122.71,-315.77 121.36,-312.17 120.54,-315.17 120.54,-315.17 120.54,-315.17 121.36,-312.17 118.37,-314.58 121.85,-310.35"/>
</g>
<!-- n_anon_00231 -->
<g id="node15" class="node">
<title>n_anon_00231</title>
<polygon fill="white" stroke="#9e9e9e" stroke-width="0.5" stroke-dasharray="5,2" points="153,-1008.6 99,-1008.6 99,-987 153,-987 153,-1008.6"/>
<text xml:space="preserve" text-anchor="middle" x="126" y="-994.88" font-family="Helvetica Neue,Helvetica,Arial" font-size="9.00" fill="#9e9e9e">anon#1</text>
</g>
<!-- n_main&#45;&gt;n_anon_00231 -->
<g id="edge37" class="edge">
<title>n_main&#45;&gt;n_anon_00231</title>
<path fill="none" stroke="#9e9e9e" stroke-width="0.5" d="M31.01,-665.44C44.98,-714.84 103.55,-921.95 120.43,-981.64"/>
<polygon fill="#9e9e9e" stroke="#9e9e9e" stroke-width="0.5" points="121.76,-986.36 118.24,-982.16 121.25,-984.54 120.4,-981.55 120.4,-981.55 120.4,-981.55 121.25,-984.54 122.57,-980.93 121.76,-986.36"/>
</g>
<!-- n_ccs_002euiReader_002ewidgetFromJsonFile -->
<g id="node3" class="node">
<title>n_ccs_002euiReader_002ewidgetFromJsonFile</title>
<polygon fill="white" stroke="#1a1a1a" stroke-width="0.5" points="368.28,-692.6 216.75,-692.6 216.75,-671 368.28,-671 368.28,-692.6"/>
<text xml:space="preserve" text-anchor="middle" x="292.51" y="-678.88" font-family="Helvetica Neue,Helvetica,Arial" font-size="9.00" fill="#1a1a1a">ccs.uiReader.widgetFromJsonFile</text>
</g>
<!-- n_anon_00230&#45;&gt;n_ccs_002euiReader_002ewidgetFromJsonFile -->
<g id="edge3" class="edge">
<title>n_anon_00230&#45;&gt;n_ccs_002euiReader_002ewidgetFromJsonFile</title>
<path fill="none" stroke="#9e9e9e" stroke-width="0.5" d="M130.15,-309.84C137.36,-334.82 155.93,-397.55 175,-448.8 206.85,-534.4 260.95,-629.93 282.38,-666.47"/>
<polygon fill="#9e9e9e" stroke="#9e9e9e" stroke-width="0.5" points="284.76,-670.5 280.28,-667.33 283.8,-668.87 282.22,-666.19 282.22,-666.19 282.22,-666.19 283.8,-668.87 284.16,-665.05 284.76,-670.5"/>
</g>
<!-- n_ccs_002euiReader_002eregisterTypeAndCallBack -->
<g id="node4" class="node">
<title>n_ccs_002euiReader_002eregisterTypeAndCallBack</title>
<polygon fill="white" stroke="#1a1a1a" stroke-width="0.5" points="377.28,-182.6 207.75,-182.6 207.75,-161 377.28,-161 377.28,-182.6"/>
<text xml:space="preserve" text-anchor="middle" x="292.51" y="-168.88" font-family="Helvetica Neue,Helvetica,Arial" font-size="9.00" fill="#1a1a1a">ccs.uiReader.registerTypeAndCallBack</text>
</g>
<!-- n_anon_00230&#45;&gt;n_ccs_002euiReader_002eregisterTypeAndCallBack -->
<g id="edge12" class="edge">
<title>n_anon_00230&#45;&gt;n_ccs_002euiReader_002eregisterTypeAndCallBack</title>
<path fill="none" stroke="#9e9e9e" stroke-width="0.5" d="M131.64,-287.79C141.01,-266.95 164.2,-221.65 198,-197.8 205.78,-192.31 214.69,-187.97 223.84,-184.55"/>
<polygon fill="#9e9e9e" stroke="#9e9e9e" stroke-width="0.5" points="228.37,-182.95 224.41,-186.74 226.59,-183.58 223.66,-184.62 223.66,-184.62 223.66,-184.62 226.59,-183.58 222.91,-182.49 228.37,-182.95"/>
</g>
<!-- n_ccs_002euiReader_002egetVersionInteger -->
<g id="node6" class="node">
<title>n_ccs_002euiReader_002egetVersionInteger</title>
<polygon fill="white" stroke="#1a1a1a" stroke-width="0.5" points="362.65,-488.6 222.38,-488.6 222.38,-467 362.65,-467 362.65,-488.6"/>
<text xml:space="preserve" text-anchor="middle" x="292.51" y="-474.88" font-family="Helvetica Neue,Helvetica,Arial" font-size="9.00" fill="#1a1a1a">ccs.uiReader.getVersionInteger</text>
</g>
<!-- n_anon_00230&#45;&gt;n_ccs_002euiReader_002egetVersionInteger -->
<g id="edge23" class="edge">
<title>n_anon_00230&#45;&gt;n_ccs_002euiReader_002egetVersionInteger</title>
<path fill="none" stroke="#9e9e9e" stroke-width="0.5" d="M128.79,-309.57C134.03,-337.52 151.92,-412.87 198,-451.8 204.4,-457.2 211.83,-461.49 219.66,-464.89"/>
<polygon fill="#9e9e9e" stroke="#9e9e9e" stroke-width="0.5" points="224.02,-466.66 218.54,-466.86 222.27,-465.95 219.39,-464.78 219.39,-464.78 219.39,-464.78 222.27,-465.95 220.24,-462.69 224.02,-466.66"/>
</g>
<!-- n_ccs_002euiReader_002estoreFileDesignSize -->
<g id="node8" class="node">
<title>n_ccs_002euiReader_002estoreFileDesignSize</title>
<polygon fill="white" stroke="#1a1a1a" stroke-width="0.5" points="367.15,-437.6 217.88,-437.6 217.88,-416 367.15,-416 367.15,-437.6"/>
<text xml:space="preserve" text-anchor="middle" x="292.51" y="-423.88" font-family="Helvetica Neue,Helvetica,Arial" font-size="9.00" fill="#1a1a1a">ccs.uiReader.storeFileDesignSize</text>
</g>
<!-- n_anon_00230&#45;&gt;n_ccs_002euiReader_002estoreFileDesignSize -->
<g id="edge28" class="edge">
<title>n_anon_00230&#45;&gt;n_ccs_002euiReader_002estoreFileDesignSize</title>
<path fill="none" stroke="#9e9e9e" stroke-width="0.5" d="M131.47,-309.59C140.69,-330.49 163.86,-376.58 198,-400.8 205.77,-406.31 214.67,-410.66 223.82,-414.08"/>
<polygon fill="#9e9e9e" stroke="#9e9e9e" stroke-width="0.5" points="228.35,-415.69 222.88,-416.14 226.57,-415.06 223.64,-414.02 223.64,-414.02 223.64,-414.02 226.57,-415.06 224.39,-411.9 228.35,-415.69"/>
</g>
<!-- n_ccs_002euiReader_002egetFileDesignSize -->
<g id="node9" class="node">
<title>n_ccs_002euiReader_002egetFileDesignSize</title>
<polygon fill="white" stroke="#1a1a1a" stroke-width="0.5" points="363.4,-386.6 221.62,-386.6 221.62,-365 363.4,-365 363.4,-386.6"/>
<text xml:space="preserve" text-anchor="middle" x="292.51" y="-372.88" font-family="Helvetica Neue,Helvetica,Arial" font-size="9.00" fill="#1a1a1a">ccs.uiReader.getFileDesignSize</text>
</g>
<!-- n_anon_00230&#45;&gt;n_ccs_002euiReader_002egetFileDesignSize -->
<g id="edge29" class="edge">
<title>n_anon_00230&#45;&gt;n_ccs_002euiReader_002egetFileDesignSize</title>
<path fill="none" stroke="#9e9e9e" stroke-width="0.5" d="M139.22,-309.66C152.73,-321.14 175.56,-339.04 198,-349.8 209.3,-355.22 221.93,-359.68 234.16,-363.29"/>
<polygon fill="#9e9e9e" stroke="#9e9e9e" stroke-width="0.5" points="238.79,-364.62 233.36,-365.4 236.97,-364.1 233.98,-363.24 233.98,-363.24 233.98,-363.24 236.97,-364.1 234.6,-361.08 238.79,-364.62"/>
</g>
<!-- n_ccs_002euiReader_002egetFilePath -->
<g id="node10" class="node">
<title>n_ccs_002euiReader_002egetFilePath</title>
<polygon fill="white" stroke="#1a1a1a" stroke-width="0.5" points="350.28,-335.6 234.75,-335.6 234.75,-314 350.28,-314 350.28,-335.6"/>
<text xml:space="preserve" text-anchor="middle" x="292.51" y="-321.88" font-family="Helvetica Neue,Helvetica,Arial" font-size="9.00" fill="#1a1a1a">ccs.uiReader.getFilePath</text>
</g>
<!-- n_anon_00230&#45;&gt;n_ccs_002euiReader_002egetFilePath -->
<g id="edge30" class="edge">
<title>n_anon_00230&#45;&gt;n_ccs_002euiReader_002egetFilePath</title>
<path fill="none" stroke="#9e9e9e" stroke-width="0.5" d="M153.07,-302.92C173.54,-306.15 202.9,-310.8 229.32,-314.97"/>
<polygon fill="#9e9e9e" stroke="#9e9e9e" stroke-width="0.5" points="233.96,-315.7 228.67,-317.15 232.1,-315.41 229.03,-314.92 229.03,-314.92 229.03,-314.92 232.1,-315.41 229.38,-312.7 233.96,-315.7"/>
</g>
<!-- n_ccs_002euiReader_002esetFilePath -->
<g id="node11" class="node">
<title>n_ccs_002euiReader_002esetFilePath</title>
<polygon fill="white" stroke="#1a1a1a" stroke-width="0.5" points="349.9,-284.6 235.12,-284.6 235.12,-263 349.9,-263 349.9,-284.6"/>
<text xml:space="preserve" text-anchor="middle" x="292.51" y="-270.88" font-family="Helvetica Neue,Helvetica,Arial" font-size="9.00" fill="#1a1a1a">ccs.uiReader.setFilePath</text>
</g>
<!-- n_anon_00230&#45;&gt;n_ccs_002euiReader_002esetFilePath -->
<g id="edge31" class="edge">
<title>n_anon_00230&#45;&gt;n_ccs_002euiReader_002esetFilePath</title>
<path fill="none" stroke="#9e9e9e" stroke-width="0.5" d="M153.07,-294.84C173.62,-291.72 203.15,-287.23 229.65,-283.2"/>
<polygon fill="#9e9e9e" stroke="#9e9e9e" stroke-width="0.5" points="234.31,-282.49 229.7,-285.47 232.44,-282.78 229.37,-283.24 229.37,-283.24 229.37,-283.24 232.44,-282.78 229.03,-281.02 234.31,-282.49"/>
</g>
<!-- n_ccs_002euiReader_002egetParseObjectMap -->
<g id="node12" class="node">
<title>n_ccs_002euiReader_002egetParseObjectMap</title>
<polygon fill="white" stroke="#1a1a1a" stroke-width="0.5" points="366.78,-72.6 218.25,-72.6 218.25,-51 366.78,-51 366.78,-72.6"/>
<text xml:space="preserve" text-anchor="middle" x="292.51" y="-58.88" font-family="Helvetica Neue,Helvetica,Arial" font-size="9.00" fill="#1a1a1a">ccs.uiReader.getParseObjectMap</text>
</g>
<!-- n_anon_00230&#45;&gt;n_ccs_002euiReader_002egetParseObjectMap -->
<g id="edge32" class="edge">
<title>n_anon_00230&#45;&gt;n_ccs_002euiReader_002egetParseObjectMap</title>
<path fill="none" stroke="#9e9e9e" stroke-width="0.5" d="M128.13,-287.76C132.27,-249.49 147.78,-123.27 175,-94.8 185.29,-84.04 198.8,-76.71 212.96,-71.73"/>
<polygon fill="#9e9e9e" stroke="#9e9e9e" stroke-width="0.5" points="217.62,-70.19 213.58,-73.9 215.83,-70.78 212.88,-71.76 212.88,-71.76 212.88,-71.76 215.83,-70.78 212.17,-69.62 217.62,-70.19"/>
</g>
<!-- n_ccs_002euiReader_002egetParseCallBackMap -->
<g id="node13" class="node">
<title>n_ccs_002euiReader_002egetParseCallBackMap</title>
<polygon fill="white" stroke="#1a1a1a" stroke-width="0.5" points="371.28,-21.6 213.75,-21.6 213.75,0 371.28,0 371.28,-21.6"/>
<text xml:space="preserve" text-anchor="middle" x="292.51" y="-7.87" font-family="Helvetica Neue,Helvetica,Arial" font-size="9.00" fill="#1a1a1a">ccs.uiReader.getParseCallBackMap</text>
</g>
<!-- n_anon_00230&#45;&gt;n_ccs_002euiReader_002egetParseCallBackMap -->
<g id="edge34" class="edge">
<title>n_anon_00230&#45;&gt;n_ccs_002euiReader_002egetParseCallBackMap</title>
<path fill="none" stroke="#9e9e9e" stroke-width="0.5" d="M128.32,-287.97C134.06,-242.88 158.3,-70.86 198,-36.8 204.25,-31.44 211.52,-27.18 219.19,-23.79"/>
<polygon fill="#9e9e9e" stroke="#9e9e9e" stroke-width="0.5" points="223.45,-22.02 219.69,-26.02 221.71,-22.75 218.83,-23.94 218.83,-23.94 218.83,-23.94 221.71,-22.75 217.97,-21.86 223.45,-22.02"/>
</g>
<!-- n_ccs_002euiReader_002eclear -->
<g id="node14" class="node">
<title>n_ccs_002euiReader_002eclear</title>
<polygon fill="white" stroke="#1a1a1a" stroke-width="0.5" points="336.78,-233.6 248.25,-233.6 248.25,-212 336.78,-212 336.78,-233.6"/>
<text xml:space="preserve" text-anchor="middle" x="292.51" y="-219.88" font-family="Helvetica Neue,Helvetica,Arial" font-size="9.00" fill="#1a1a1a">ccs.uiReader.clear</text>
</g>
<!-- n_anon_00230&#45;&gt;n_ccs_002euiReader_002eclear -->
<g id="edge36" class="edge">
<title>n_anon_00230&#45;&gt;n_ccs_002euiReader_002eclear</title>
<path fill="none" stroke="#9e9e9e" stroke-width="0.5" d="M139.76,-287.76C153.36,-276.5 175.93,-259.26 198,-248.8 211.97,-242.18 227.94,-236.97 242.67,-233"/>
<polygon fill="#9e9e9e" stroke="#9e9e9e" stroke-width="0.5" points="247.45,-231.75 243.19,-235.2 245.62,-232.23 242.62,-233.02 242.62,-233.02 242.62,-233.02 245.62,-232.23 242.05,-230.84 247.45,-231.75"/>
</g>
<!-- n_getParser -->
<g id="node22" class="node">
<title>n_getParser</title>
<text xml:space="preserve" text-anchor="middle" x="565.67" y="-88.45" font-family="Helvetica Neue,Helvetica,Arial" font-size="8.00" fill="#fc3d21">getParser</text>
</g>
<!-- n_anon_00230&#45;&gt;n_getParser -->
<g id="edge2" class="edge">
<title>n_anon_00230&#45;&gt;n_getParser</title>
<path fill="none" stroke="#fc3d21" stroke-width="0.4" stroke-dasharray="5,2" d="M128.57,-287.79C133.26,-259.27 149.97,-182.76 198,-146.8 250.92,-107.18 454.82,-95.09 533.47,-91.86"/>
<polygon fill="#fc3d21" stroke="#fc3d21" stroke-width="0.4" points="538.43,-91.66 533.52,-94.11 536.42,-91.74 533.43,-91.86 533.43,-91.86 533.43,-91.86 536.42,-91.74 533.34,-89.61 538.43,-91.66"/>
</g>
<!-- n_getRes -->
<g id="node23" class="node">
<title>n_getRes</title>
<text xml:space="preserve" text-anchor="middle" x="565.67" y="-781.45" font-family="Helvetica Neue,Helvetica,Arial" font-size="8.00" fill="#fc3d21">getRes</text>
</g>
<!-- n_ccs_002euiReader_002ewidgetFromJsonFile&#45;&gt;n_getRes -->
<g id="edge4" class="edge">
<title>n_ccs_002euiReader_002ewidgetFromJsonFile&#45;&gt;n_getRes</title>
<path fill="none" stroke="#fc3d21" stroke-width="0.4" stroke-dasharray="5,2" d="M317.8,-692.84C352.58,-708.44 418.81,-737.31 476.78,-757.8 495.41,-764.38 516.64,-770.7 533.57,-775.45"/>
<polygon fill="#fc3d21" stroke="#fc3d21" stroke-width="0.4" points="538.21,-776.75 532.79,-777.57 536.27,-776.21 533.39,-775.4 533.39,-775.4 533.39,-775.4 536.27,-776.21 533.99,-773.24 538.21,-776.75"/>
</g>
<!-- n_join -->
<g id="node24" class="node">
<title>n_join</title>
<text xml:space="preserve" text-anchor="middle" x="565.67" y="-730.45" font-family="Helvetica Neue,Helvetica,Arial" font-size="8.00" fill="#fc3d21">join</text>
</g>
<!-- n_ccs_002euiReader_002ewidgetFromJsonFile&#45;&gt;n_join -->
<g id="edge5" class="edge">
<title>n_ccs_002euiReader_002ewidgetFromJsonFile&#45;&gt;n_join</title>
<path fill="none" stroke="#fc3d21" stroke-width="0.4" stroke-dasharray="5,2" d="M351.09,-692.81C369.59,-696.34 390.17,-700.25 409.03,-703.8 452.18,-711.93 502.09,-721.21 533.51,-727.03"/>
<polygon fill="#fc3d21" stroke="#fc3d21" stroke-width="0.4" points="538.3,-727.92 532.97,-729.22 536.32,-727.55 533.38,-727.01 533.38,-727.01 533.38,-727.01 536.32,-727.55 533.79,-724.8 538.3,-727.92"/>
</g>
<!-- n_resPath -->
<g id="node25" class="node">
<title>n_resPath</title>
<text xml:space="preserve" text-anchor="middle" x="565.67" y="-679.45" font-family="Helvetica Neue,Helvetica,Arial" font-size="8.00" fill="#fc3d21">resPath</text>
</g>
<!-- n_ccs_002euiReader_002ewidgetFromJsonFile&#45;&gt;n_resPath -->
<g id="edge6" class="edge">
<title>n_ccs_002euiReader_002ewidgetFromJsonFile&#45;&gt;n_resPath</title>
<path fill="none" stroke="#fc3d21" stroke-width="0.4" stroke-dasharray="5,2" d="M368.33,-681.8C422.79,-681.8 493.74,-681.8 533.73,-681.8"/>
<polygon fill="#fc3d21" stroke="#fc3d21" stroke-width="0.4" points="538.43,-681.8 533.43,-684.05 536.42,-681.8 533.43,-681.8 533.43,-681.8 533.43,-681.8 536.42,-681.8 533.43,-679.55 538.43,-681.8"/>
</g>
<!-- n_size -->
<g id="node26" class="node">
<title>n_size</title>
<text xml:space="preserve" text-anchor="middle" x="565.67" y="-628.45" font-family="Helvetica Neue,Helvetica,Arial" font-size="8.00" fill="#fc3d21">size</text>
</g>
<!-- n_ccs_002euiReader_002ewidgetFromJsonFile&#45;&gt;n_size -->
<g id="edge7" class="edge">
<title>n_ccs_002euiReader_002ewidgetFromJsonFile&#45;&gt;n_size</title>
<path fill="none" stroke="#fc3d21" stroke-width="0.4" stroke-dasharray="5,2" d="M352.02,-670.8C407.82,-660.3 489.71,-644.9 533.81,-636.6"/>
<polygon fill="#fc3d21" stroke="#fc3d21" stroke-width="0.4" points="538.52,-635.72 534.02,-638.85 536.54,-636.09 533.61,-636.64 533.61,-636.64 533.61,-636.64 536.54,-636.09 533.19,-634.43 538.52,-635.72"/>
</g>
<!-- n_designHeight -->
<g id="node27" class="node">
<title>n_designHeight</title>
<text xml:space="preserve" text-anchor="middle" x="565.67" y="-577.45" font-family="Helvetica Neue,Helvetica,Arial" font-size="8.00" fill="#fc3d21">designHeight</text>
</g>
<!-- n_ccs_002euiReader_002ewidgetFromJsonFile&#45;&gt;n_designHeight -->
<g id="edge8" class="edge">
<title>n_ccs_002euiReader_002ewidgetFromJsonFile&#45;&gt;n_designHeight</title>
<path fill="none" stroke="#fc3d21" stroke-width="0.4" stroke-dasharray="5,2" d="M317.8,-670.76C352.59,-655.18 418.82,-626.33 476.78,-605.8 493.77,-599.78 512.94,-594 529.02,-589.42"/>
<polygon fill="#fc3d21" stroke="#fc3d21" stroke-width="0.4" points="533.44,-588.17 529.24,-591.7 531.5,-588.72 528.63,-589.53 528.63,-589.53 528.63,-589.53 531.5,-588.72 528.02,-587.37 533.44,-588.17"/>
<text xml:space="preserve" text-anchor="start" x="423.28" y="-632.71" font-family="Helvetica Neue,Helvetica" font-size="7.00" fill="#00695c"> (0, 0)</text>
</g>
<!-- n_getVersionInteger -->
<g id="node28" class="node">
<title>n_getVersionInteger</title>
<text xml:space="preserve" text-anchor="middle" x="565.67" y="-526.45" font-family="Helvetica Neue,Helvetica,Arial" font-size="8.00" fill="#fc3d21">getVersionInteger</text>
</g>
<!-- n_ccs_002euiReader_002ewidgetFromJsonFile&#45;&gt;n_getVersionInteger -->
<g id="edge9" class="edge">
<title>n_ccs_002euiReader_002ewidgetFromJsonFile&#45;&gt;n_getVersionInteger</title>
<path fill="none" stroke="#fc3d21" stroke-width="0.4" stroke-dasharray="5,2" d="M305.96,-671.03C334.38,-646.95 406.96,-588.25 476.78,-554.8 490.58,-548.19 506.42,-542.87 520.82,-538.81"/>
<polygon fill="#fc3d21" stroke="#fc3d21" stroke-width="0.4" points="525.58,-537.51 521.35,-541 523.64,-538.04 520.76,-538.83 520.76,-538.83 520.76,-538.83 523.64,-538.04 520.16,-536.66 525.58,-537.51"/>
</g>
<!-- n_warn -->
<g id="node29" class="node">
<title>n_warn</title>
<text xml:space="preserve" text-anchor="middle" x="565.67" y="-832.45" font-family="Helvetica Neue,Helvetica,Arial" font-size="8.00" fill="#fc3d21">warn</text>
</g>
<!-- n_ccs_002euiReader_002ewidgetFromJsonFile&#45;&gt;n_warn -->
<g id="edge10" class="edge">
<title>n_ccs_002euiReader_002ewidgetFromJsonFile&#45;&gt;n_warn</title>
<path fill="none" stroke="#fc3d21" stroke-width="0.4" stroke-dasharray="5,2" d="M305.94,-692.62C334.31,-716.8 406.8,-775.68 476.78,-808.8 494.9,-817.37 516.47,-823.81 533.7,-828.13"/>
<polygon fill="#fc3d21" stroke="#fc3d21" stroke-width="0.4" points="538.43,-829.28 533.04,-830.28 536.48,-828.81 533.57,-828.1 533.57,-828.1 533.57,-828.1 536.48,-828.81 534.11,-825.91 538.43,-829.28"/>
<text xml:space="preserve" text-anchor="start" x="421.78" y="-796.54" font-family="Helvetica Neue,Helvetica" font-size="7.00" fill="#00695c"> (1700)</text>
</g>
<!-- n__load -->
<g id="node30" class="node">
<title>n__load</title>
<text xml:space="preserve" text-anchor="middle" x="565.67" y="-883.45" font-family="Helvetica Neue,Helvetica,Arial" font-size="8.00" fill="#fc3d21">_load</text>
</g>
<!-- n_ccs_002euiReader_002ewidgetFromJsonFile&#45;&gt;n__load -->
<g id="edge11" class="edge">
<title>n_ccs_002euiReader_002ewidgetFromJsonFile&#45;&gt;n__load</title>
<path fill="none" stroke="#fc3d21" stroke-width="0.4" stroke-dasharray="5,2" d="M300.75,-692.5C322.82,-724.22 392.99,-818.11 476.78,-859.8 494.73,-868.73 516.29,-875.17 533.57,-879.4"/>
<polygon fill="#fc3d21" stroke="#fc3d21" stroke-width="0.4" points="538.31,-880.53 532.92,-881.56 536.35,-880.07 533.45,-879.37 533.45,-879.37 533.45,-879.37 536.35,-880.07 533.97,-877.18 538.31,-880.53"/>
<text xml:space="preserve" text-anchor="start" x="424.03" y="-848.89" font-family="Helvetica Neue,Helvetica" font-size="7.00" fill="#00695c"> (</text>
<text xml:space="preserve" text-anchor="start" x="427.78" y="-848.89" font-family="Helvetica Neue,Helvetica" font-size="7.00" fill="#0b3d91">null</text>
<text xml:space="preserve" text-anchor="start" x="438.28" y="-848.89" font-family="Helvetica Neue,Helvetica" font-size="7.00" fill="#00695c">)</text>
</g>
<!-- n_ccs_002euiReader_002eregisterTypeAndCallBack_002f_003c -->
<g id="node5" class="node">
<title>n_ccs_002euiReader_002eregisterTypeAndCallBack_002f_003c</title>
<polygon fill="white" stroke="#1a1a1a" stroke-width="0.5" points="654.56,-177.6 476.78,-177.6 476.78,-156 654.56,-156 654.56,-177.6"/>
<text xml:space="preserve" text-anchor="middle" x="565.67" y="-163.88" font-family="Helvetica Neue,Helvetica,Arial" font-size="9.00" fill="#1a1a1a">ccs.uiReader.registerTypeAndCallBack/&lt;</text>
</g>
<!-- n_ccs_002euiReader_002eregisterTypeAndCallBack&#45;&gt;n_ccs_002euiReader_002eregisterTypeAndCallBack_002f_003c -->
<g id="edge16" class="edge">
<title>n_ccs_002euiReader_002eregisterTypeAndCallBack&#45;&gt;n_ccs_002euiReader_002eregisterTypeAndCallBack_002f_003c</title>
<path fill="none" stroke="#9e9e9e" stroke-width="0.5" d="M377.45,-170.25C407.3,-169.7 441.07,-169.08 471.64,-168.52"/>
<polygon fill="#9e9e9e" stroke="#9e9e9e" stroke-width="0.5" points="476.3,-168.43 471.34,-170.77 474.41,-168.46 471.3,-168.52 471.3,-168.52 471.3,-168.52 474.41,-168.46 471.26,-166.27 476.3,-168.43"/>
</g>
<!-- n_ccs_002euiReader_002eregisterTypeAndCallBack&#45;&gt;n_getParser -->
<g id="edge13" class="edge">
<title>n_ccs_002euiReader_002eregisterTypeAndCallBack&#45;&gt;n_getParser</title>
<path fill="none" stroke="#fc3d21" stroke-width="0.4" stroke-dasharray="5,2" d="M338.25,-160.8C370.76,-152.58 415.71,-140.75 454.78,-128.8 481.77,-120.55 512.05,-109.98 533.98,-102.08"/>
<polygon fill="#fc3d21" stroke="#fc3d21" stroke-width="0.4" points="538.63,-100.4 534.69,-104.22 536.73,-101.08 533.93,-102.1 533.93,-102.1 533.93,-102.1 536.73,-101.08 533.16,-99.98 538.63,-100.4"/>
</g>
<!-- n_bind -->
<g id="node31" class="node">
<title>n_bind</title>
<text xml:space="preserve" text-anchor="middle" x="565.67" y="-215.45" font-family="Helvetica Neue,Helvetica,Arial" font-size="8.00" fill="#fc3d21">bind</text>
</g>
<!-- n_ccs_002euiReader_002eregisterTypeAndCallBack&#45;&gt;n_bind -->
<g id="edge14" class="edge">
<title>n_ccs_002euiReader_002eregisterTypeAndCallBack&#45;&gt;n_bind</title>
<path fill="none" stroke="#fc3d21" stroke-width="0.4" stroke-dasharray="5,2" d="M358.46,-182.82C413.91,-192.22 491.21,-205.34 533.68,-212.54"/>
<polygon fill="#fc3d21" stroke="#fc3d21" stroke-width="0.4" points="538.45,-213.35 533.14,-214.73 536.46,-213.01 533.52,-212.52 533.52,-212.52 533.52,-212.52 536.46,-213.01 533.89,-210.3 538.45,-213.35"/>
</g>
<!-- n_registerParser -->
<g id="node32" class="node">
<title>n_registerParser</title>
<text xml:space="preserve" text-anchor="middle" x="565.67" y="-266.45" font-family="Helvetica Neue,Helvetica,Arial" font-size="8.00" fill="#fc3d21">registerParser</text>
</g>
<!-- n_ccs_002euiReader_002eregisterTypeAndCallBack&#45;&gt;n_registerParser -->
<g id="edge15" class="edge">
<title>n_ccs_002euiReader_002eregisterTypeAndCallBack&#45;&gt;n_registerParser</title>
<path fill="none" stroke="#fc3d21" stroke-width="0.4" stroke-dasharray="5,2" d="M349.59,-182.82C362.35,-186.55 375.52,-191.45 387.03,-197.8 398.6,-204.19 397.73,-210.94 409.03,-217.8 436.46,-234.46 446.32,-232.69 476.78,-242.8 493.06,-248.21 511.22,-253.67 526.78,-258.18"/>
<polygon fill="#fc3d21" stroke="#fc3d21" stroke-width="0.4" points="531.49,-259.54 526.06,-260.32 529.55,-258.98 526.68,-258.16 526.68,-258.16 526.68,-258.16 529.55,-258.98 527.31,-255.99 531.49,-259.54"/>
</g>
<!-- n_setPropsFromJsonDictionary -->
<g id="node33" class="node">
<title>n_setPropsFromJsonDictionary</title>
<text xml:space="preserve" text-anchor="middle" x="759.2" y="-292.45" font-family="Helvetica Neue,Helvetica,Arial" font-size="8.00" fill="#fc3d21">setPropsFromJsonDictionary</text>
</g>
<!-- n_ccs_002euiReader_002eregisterTypeAndCallBack_002f_003c&#45;&gt;n_setPropsFromJsonDictionary -->
<g id="edge17" class="edge">
<title>n_ccs_002euiReader_002eregisterTypeAndCallBack_002f_003c&#45;&gt;n_setPropsFromJsonDictionary</title>
<path fill="none" stroke="#fc3d21" stroke-width="0.4" stroke-dasharray="5,2" d="M626.36,-177.84C636.42,-181.49 646.28,-186.35 654.56,-192.8 670.04,-204.86 684.89,-255.76 699.56,-268.8 705.38,-273.97 712.38,-278.26 719.5,-281.75"/>
<polygon fill="#fc3d21" stroke="#fc3d21" stroke-width="0.4" points="723.99,-283.84 718.51,-283.77 722.17,-282.99 719.46,-281.73 719.46,-281.73 719.46,-281.73 722.17,-282.99 720.41,-279.69 723.99,-283.84"/>
</g>
<!-- n_generalAttributes -->
<g id="node34" class="node">
<title>n_generalAttributes</title>
<text xml:space="preserve" text-anchor="middle" x="759.2" y="-241.45" font-family="Helvetica Neue,Helvetica,Arial" font-size="8.00" fill="#fc3d21">generalAttributes</text>
</g>
<!-- n_ccs_002euiReader_002eregisterTypeAndCallBack_002f_003c&#45;&gt;n_generalAttributes -->
<g id="edge18" class="edge">
<title>n_ccs_002euiReader_002eregisterTypeAndCallBack_002f_003c&#45;&gt;n_generalAttributes</title>
<path fill="none" stroke="#fc3d21" stroke-width="0.4" stroke-dasharray="5,2" d="M610.69,-177.77C624.92,-181.86 640.62,-186.95 654.56,-192.8 675.66,-201.65 679.08,-207.6 699.56,-217.8 708.56,-222.28 718.5,-226.84 727.61,-230.86"/>
<polygon fill="#fc3d21" stroke="#fc3d21" stroke-width="0.4" points="732.12,-232.83 726.64,-232.89 730.28,-232.03 727.54,-230.83 727.54,-230.83 727.54,-230.83 730.28,-232.03 728.45,-228.77 732.12,-232.83"/>
</g>
<!-- n_parse -->
<g id="node35" class="node">
<title>n_parse</title>
<text xml:space="preserve" text-anchor="middle" x="759.2" y="-190.45" font-family="Helvetica Neue,Helvetica,Arial" font-size="8.00" fill="#fc3d21">parse</text>
</g>
<!-- n_ccs_002euiReader_002eregisterTypeAndCallBack_002f_003c&#45;&gt;n_parse -->
<g id="edge19" class="edge">
<title>n_ccs_002euiReader_002eregisterTypeAndCallBack_002f_003c&#45;&gt;n_parse</title>
<path fill="none" stroke="#fc3d21" stroke-width="0.4" stroke-dasharray="5,2" d="M647.9,-177.83C675.91,-181.63 705.61,-185.66 727.13,-188.58"/>
<polygon fill="#fc3d21" stroke="#fc3d21" stroke-width="0.4" points="731.94,-189.24 726.68,-190.79 729.94,-188.96 726.98,-188.56 726.98,-188.56 726.98,-188.56 729.94,-188.96 727.29,-186.33 731.94,-189.24"/>
</g>
<!-- n_colorAttributes -->
<g id="node36" class="node">
<title>n_colorAttributes</title>
<text xml:space="preserve" text-anchor="middle" x="759.2" y="-139.45" font-family="Helvetica Neue,Helvetica,Arial" font-size="8.00" fill="#fc3d21">colorAttributes</text>
</g>
<!-- n_ccs_002euiReader_002eregisterTypeAndCallBack_002f_003c&#45;&gt;n_colorAttributes -->
<g id="edge20" class="edge">
<title>n_ccs_002euiReader_002eregisterTypeAndCallBack_002f_003c&#45;&gt;n_colorAttributes</title>
<path fill="none" stroke="#fc3d21" stroke-width="0.4" stroke-dasharray="5,2" d="M651.24,-155.76C675.05,-152.65 699.8,-149.42 719.49,-146.85"/>
<polygon fill="#fc3d21" stroke="#fc3d21" stroke-width="0.4" points="724.42,-146.21 719.76,-149.09 722.43,-146.47 719.47,-146.86 719.47,-146.86 719.47,-146.86 722.43,-146.47 719.17,-144.62 724.42,-146.21"/>
</g>
<!-- n_anchorPointAttributes -->
<g id="node37" class="node">
<title>n_anchorPointAttributes</title>
<text xml:space="preserve" text-anchor="middle" x="759.2" y="-88.45" font-family="Helvetica Neue,Helvetica,Arial" font-size="8.00" fill="#fc3d21">anchorPointAttributes</text>
</g>
<!-- n_ccs_002euiReader_002eregisterTypeAndCallBack_002f_003c&#45;&gt;n_anchorPointAttributes -->
<g id="edge21" class="edge">
<title>n_ccs_002euiReader_002eregisterTypeAndCallBack_002f_003c&#45;&gt;n_anchorPointAttributes</title>
<path fill="none" stroke="#fc3d21" stroke-width="0.4" stroke-dasharray="5,2" d="M594.11,-155.91C629.06,-142.04 689.33,-118.13 726.29,-103.46"/>
<polygon fill="#fc3d21" stroke="#fc3d21" stroke-width="0.4" points="730.67,-101.73 726.85,-105.66 728.8,-102.47 726.02,-103.57 726.02,-103.57 726.02,-103.57 728.8,-102.47 725.19,-101.48 730.67,-101.73"/>
</g>
<!-- n_call -->
<g id="node38" class="node">
<title>n_call</title>
<text xml:space="preserve" text-anchor="middle" x="759.2" y="-37.45" font-family="Helvetica Neue,Helvetica,Arial" font-size="8.00" fill="#fc3d21">call</text>
</g>
<!-- n_ccs_002euiReader_002eregisterTypeAndCallBack_002f_003c&#45;&gt;n_call -->
<g id="edge22" class="edge">
<title>n_ccs_002euiReader_002eregisterTypeAndCallBack_002f_003c&#45;&gt;n_call</title>
<path fill="none" stroke="#fc3d21" stroke-width="0.4" stroke-dasharray="5,2" d="M589.95,-155.83C608.43,-146.53 634.43,-132.14 654.56,-115.8 677.77,-96.96 675.36,-83.36 699.56,-65.8 708,-59.67 718.12,-54.55 727.55,-50.51"/>
<polygon fill="#fc3d21" stroke="#fc3d21" stroke-width="0.4" points="731.96,-48.69 728.2,-52.68 730.1,-49.46 727.34,-50.6 727.34,-50.6 727.34,-50.6 730.1,-49.46 726.48,-48.52 731.96,-48.69"/>
</g>
<!-- n_ccs_002euiReader_002egetVersionInteger_002f_003c -->
<g id="node7" class="node">
<title>n_ccs_002euiReader_002egetVersionInteger_002f_003c</title>
<polygon fill="white" stroke="#1a1a1a" stroke-width="0.5" points="639.94,-488.6 491.41,-488.6 491.41,-467 639.94,-467 639.94,-488.6"/>
<text xml:space="preserve" text-anchor="middle" x="565.67" y="-474.88" font-family="Helvetica Neue,Helvetica,Arial" font-size="9.00" fill="#1a1a1a">ccs.uiReader.getVersionInteger/&lt;</text>
</g>
<!-- n_ccs_002euiReader_002egetVersionInteger&#45;&gt;n_ccs_002euiReader_002egetVersionInteger_002f_003c -->
<g id="edge26" class="edge">
<title>n_ccs_002euiReader_002egetVersionInteger&#45;&gt;n_ccs_002euiReader_002egetVersionInteger_002f_003c</title>
<path fill="none" stroke="#9e9e9e" stroke-width="0.5" d="M362.64,-477.8C400.33,-477.8 447.13,-477.8 486.19,-477.8"/>
<polygon fill="#9e9e9e" stroke="#9e9e9e" stroke-width="0.5" points="490.79,-477.8 485.79,-480.05 488.9,-477.8 485.79,-477.8 485.79,-477.8 485.79,-477.8 488.9,-477.8 485.79,-475.55 490.79,-477.8"/>
</g>
<!-- n_split -->
<g id="node39" class="node">
<title>n_split</title>
<text xml:space="preserve" text-anchor="middle" x="565.67" y="-424.45" font-family="Helvetica Neue,Helvetica,Arial" font-size="8.00" fill="#fc3d21">split</text>
</g>
<!-- n_ccs_002euiReader_002egetVersionInteger&#45;&gt;n_split -->
<g id="edge24" class="edge">
<title>n_ccs_002euiReader_002egetVersionInteger&#45;&gt;n_split</title>
<path fill="none" stroke="#fc3d21" stroke-width="0.4" stroke-dasharray="5,2" d="M352.02,-466.8C407.82,-456.3 489.71,-440.9 533.81,-432.6"/>
<polygon fill="#fc3d21" stroke="#fc3d21" stroke-width="0.4" points="538.52,-431.72 534.02,-434.85 536.54,-432.09 533.61,-432.64 533.61,-432.64 533.61,-432.64 536.54,-432.09 533.19,-430.43 538.52,-431.72"/>
<text xml:space="preserve" text-anchor="start" x="413.53" y="-457.95" font-family="Helvetica Neue,Helvetica" font-size="7.00" fill="#00695c"> (</text>
<text xml:space="preserve" text-anchor="start" x="417.28" y="-457.95" font-family="Helvetica Neue,Helvetica" font-size="7.00" fill="#d84315">&quot;string&quot;</text>
<text xml:space="preserve" text-anchor="start" x="440.53" y="-457.95" font-family="Helvetica Neue,Helvetica" font-size="7.00" fill="#00695c">, 0)</text>
</g>
<!-- n_forEach -->
<g id="node40" class="node">
<title>n_forEach</title>
<text xml:space="preserve" text-anchor="middle" x="565.67" y="-373.45" font-family="Helvetica Neue,Helvetica,Arial" font-size="8.00" fill="#fc3d21">forEach</text>
</g>
<!-- n_ccs_002euiReader_002egetVersionInteger&#45;&gt;n_forEach -->
<g id="edge25" class="edge">
<title>n_ccs_002euiReader_002egetVersionInteger&#45;&gt;n_forEach</title>
<path fill="none" stroke="#fc3d21" stroke-width="0.4" stroke-dasharray="5,2" d="M349.01,-466.77C361.93,-463.02 375.32,-458.12 387.03,-451.8 398.46,-445.63 398.11,-439.59 409.03,-432.55 436.83,-414.64 445.8,-413.35 476.78,-401.8 495.43,-394.85 516.83,-388.48 533.85,-383.79"/>
<polygon fill="#fc3d21" stroke="#fc3d21" stroke-width="0.4" points="538.51,-382.52 534.28,-386.01 536.57,-383.05 533.69,-383.84 533.69,-383.84 533.69,-383.84 536.57,-383.05 533.09,-381.67 538.51,-382.52"/>
<text xml:space="preserve" text-anchor="start" x="419.16" y="-434.15" font-family="Helvetica Neue,Helvetica" font-size="7.00" fill="#00695c"> (4, 0, 0)</text>
</g>
<!-- n_pow -->
<g id="node41" class="node">
<title>n_pow</title>
<text xml:space="preserve" text-anchor="middle" x="759.2" y="-475.45" font-family="Helvetica Neue,Helvetica,Arial" font-size="8.00" fill="#fc3d21">pow</text>
</g>
<!-- n_ccs_002euiReader_002egetVersionInteger_002f_003c&#45;&gt;n_pow -->
<g id="edge27" class="edge">
<title>n_ccs_002euiReader_002egetVersionInteger_002f_003c&#45;&gt;n_pow</title>
<path fill="none" stroke="#fc3d21" stroke-width="0.4" stroke-dasharray="5,2" d="M640.17,-477.8C670.25,-477.8 703.44,-477.8 726.94,-477.8"/>
<polygon fill="#fc3d21" stroke="#fc3d21" stroke-width="0.4" points="731.91,-477.8 726.91,-480.05 729.89,-477.8 726.91,-477.8 726.91,-477.8 726.91,-477.8 729.89,-477.8 726.91,-475.55 731.91,-477.8"/>
</g>
<!-- n_ccs_002euiReader_002egetParseObjectMap&#45;&gt;n_getParser -->
<g id="edge33" class="edge">
<title>n_ccs_002euiReader_002egetParseObjectMap&#45;&gt;n_getParser</title>
<path fill="none" stroke="#fc3d21" stroke-width="0.4" stroke-dasharray="5,2" d="M366.89,-69.65C421.53,-75.49 493.38,-83.18 533.72,-87.49"/>
<polygon fill="#fc3d21" stroke="#fc3d21" stroke-width="0.4" points="538.47,-88 533.26,-89.7 536.47,-87.78 533.5,-87.47 533.5,-87.47 533.5,-87.47 536.47,-87.78 533.74,-85.23 538.47,-88"/>
</g>
<!-- n_ccs_002euiReader_002egetParseCallBackMap&#45;&gt;n_getParser -->
<g id="edge35" class="edge">
<title>n_ccs_002euiReader_002egetParseCallBackMap&#45;&gt;n_getParser</title>
<path fill="none" stroke="#fc3d21" stroke-width="0.4" stroke-dasharray="5,2" d="M333.62,-21.72C350.18,-26.29 369.56,-31.72 387.03,-36.8 438.65,-51.82 498.42,-70.19 533.8,-81.17"/>
<polygon fill="#fc3d21" stroke="#fc3d21" stroke-width="0.4" points="538.37,-82.59 532.93,-83.26 536.45,-81.99 533.6,-81.11 533.6,-81.11 533.6,-81.11 536.45,-81.99 534.27,-78.96 538.37,-82.59"/>
</g>
<!-- n_ccs_002esceneReader_002ecreateNodeWithSceneFile -->
<g id="node16" class="node">
<title>n_ccs_002esceneReader_002ecreateNodeWithSceneFile</title>
<polygon fill="white" stroke="#1a1a1a" stroke-width="0.5" points="387.03,-906.6 198,-906.6 198,-885 387.03,-885 387.03,-906.6"/>
<text xml:space="preserve" text-anchor="middle" x="292.51" y="-892.88" font-family="Helvetica Neue,Helvetica,Arial" font-size="9.00" fill="#1a1a1a">ccs.sceneReader.createNodeWithSceneFile</text>
</g>
<!-- n_anon_00231&#45;&gt;n_ccs_002esceneReader_002ecreateNodeWithSceneFile -->
<g id="edge38" class="edge">
<title>n_anon_00231&#45;&gt;n_ccs_002esceneReader_002ecreateNodeWithSceneFile</title>
<path fill="none" stroke="#9e9e9e" stroke-width="0.5" d="M134.14,-986.97C145.61,-970.41 169.75,-938.94 198,-921.8 207.16,-916.24 217.54,-911.84 227.97,-908.36"/>
<polygon fill="#9e9e9e" stroke="#9e9e9e" stroke-width="0.5" points="232.51,-906.92 228.43,-910.58 230.71,-907.49 227.75,-908.44 227.75,-908.44 227.75,-908.44 230.71,-907.49 227.06,-906.29 232.51,-906.92"/>
</g>
<!-- n_ccs_002esceneReader_002egetNodeByTag -->
<g id="node17" class="node">
<title>n_ccs_002esceneReader_002egetNodeByTag</title>
<polygon fill="white" stroke="#1a1a1a" stroke-width="0.5" points="364.9,-1191.6 220.12,-1191.6 220.12,-1170 364.9,-1170 364.9,-1191.6"/>
<text xml:space="preserve" text-anchor="middle" x="292.51" y="-1177.88" font-family="Helvetica Neue,Helvetica,Arial" font-size="9.00" fill="#1a1a1a">ccs.sceneReader.getNodeByTag</text>
</g>
<!-- n_anon_00231&#45;&gt;n_ccs_002esceneReader_002egetNodeByTag -->
<g id="edge40" class="edge">
<title>n_anon_00231&#45;&gt;n_ccs_002esceneReader_002egetNodeByTag</title>
<path fill="none" stroke="#9e9e9e" stroke-width="0.5" d="M130.79,-1008.52C139.51,-1032 162.99,-1088.73 198,-1124.8 215.86,-1143.2 241.02,-1157.81 260.74,-1167.49"/>
<polygon fill="#9e9e9e" stroke="#9e9e9e" stroke-width="0.5" points="265.08,-1169.58 259.6,-1169.44 263.38,-1168.76 260.58,-1167.41 260.58,-1167.41 260.58,-1167.41 263.38,-1168.76 261.55,-1165.38 265.08,-1169.58"/>
</g>
<!-- n_ccs_002esceneReader_002e_nodeByTag -->
<g id="node18" class="node">
<title>n_ccs_002esceneReader_002e_nodeByTag</title>
<polygon fill="white" stroke="#1a1a1a" stroke-width="0.5" points="360.03,-1110.6 225,-1110.6 225,-1089 360.03,-1089 360.03,-1110.6"/>
<text xml:space="preserve" text-anchor="middle" x="292.51" y="-1096.88" font-family="Helvetica Neue,Helvetica,Arial" font-size="9.00" fill="#1a1a1a">ccs.sceneReader._nodeByTag</text>
</g>
<!-- n_anon_00231&#45;&gt;n_ccs_002esceneReader_002e_nodeByTag -->
<g id="edge44" class="edge">
<title>n_anon_00231&#45;&gt;n_ccs_002esceneReader_002e_nodeByTag</title>
<path fill="none" stroke="#9e9e9e" stroke-width="0.5" d="M134.14,-1008.63C145.61,-1025.19 169.75,-1056.66 198,-1073.8 207.16,-1079.36 217.54,-1083.76 227.97,-1087.24"/>
<polygon fill="#9e9e9e" stroke="#9e9e9e" stroke-width="0.5" points="232.51,-1088.68 227.06,-1089.31 230.71,-1088.11 227.75,-1087.16 227.75,-1087.16 227.75,-1087.16 230.71,-1088.11 228.43,-1085.02 232.51,-1088.68"/>
</g>
<!-- n_ccs_002esceneReader_002eversion -->
<g id="node19" class="node">
<title>n_ccs_002esceneReader_002eversion</title>
<polygon fill="white" stroke="#1a1a1a" stroke-width="0.5" points="349.9,-1059.6 235.12,-1059.6 235.12,-1038 349.9,-1038 349.9,-1059.6"/>
<text xml:space="preserve" text-anchor="middle" x="292.51" y="-1045.88" font-family="Helvetica Neue,Helvetica,Arial" font-size="9.00" fill="#1a1a1a">ccs.sceneReader.version</text>
</g>
<!-- n_anon_00231&#45;&gt;n_ccs_002esceneReader_002eversion -->
<g id="edge48" class="edge">
<title>n_anon_00231&#45;&gt;n_ccs_002esceneReader_002eversion</title>
<path fill="none" stroke="#9e9e9e" stroke-width="0.5" d="M148.63,-1008.75C156.76,-1012.59 166.18,-1016.71 175,-1019.8 193.61,-1026.32 214.38,-1031.98 233.17,-1036.53"/>
<polygon fill="#9e9e9e" stroke="#9e9e9e" stroke-width="0.5" points="237.82,-1037.64 232.43,-1038.66 235.98,-1037.2 232.96,-1036.48 232.96,-1036.48 232.96,-1036.48 235.98,-1037.2 233.48,-1034.29 237.82,-1037.64"/>
</g>
<!-- n_ccs_002esceneReader_002esetTarget -->
<g id="node20" class="node">
<title>n_ccs_002esceneReader_002esetTarget</title>
<polygon fill="white" stroke="#1a1a1a" stroke-width="0.5" points="353.65,-1008.6 231.38,-1008.6 231.38,-987 353.65,-987 353.65,-1008.6"/>
<text xml:space="preserve" text-anchor="middle" x="292.51" y="-994.88" font-family="Helvetica Neue,Helvetica,Arial" font-size="9.00" fill="#1a1a1a">ccs.sceneReader.setTarget</text>
</g>
<!-- n_anon_00231&#45;&gt;n_ccs_002esceneReader_002esetTarget -->
<g id="edge49" class="edge">
<title>n_anon_00231&#45;&gt;n_ccs_002esceneReader_002esetTarget</title>
<path fill="none" stroke="#9e9e9e" stroke-width="0.5" d="M153.07,-997.8C172.69,-997.8 200.49,-997.8 226.03,-997.8"/>
<polygon fill="#9e9e9e" stroke="#9e9e9e" stroke-width="0.5" points="230.84,-997.8 225.84,-1000.05 228.94,-997.8 225.84,-997.8 225.84,-997.8 225.84,-997.8 228.94,-997.8 225.84,-995.55 230.84,-997.8"/>
</g>
<!-- n_ccs_002esceneReader_002eclear -->
<g id="node21" class="node">
<title>n_ccs_002esceneReader_002eclear</title>
<polygon fill="white" stroke="#1a1a1a" stroke-width="0.5" points="344.65,-957.6 240.38,-957.6 240.38,-936 344.65,-936 344.65,-957.6"/>
<text xml:space="preserve" text-anchor="middle" x="292.51" y="-943.88" font-family="Helvetica Neue,Helvetica,Arial" font-size="9.00" fill="#1a1a1a">ccs.sceneReader.clear</text>
</g>
<!-- n_anon_00231&#45;&gt;n_ccs_002esceneReader_002eclear -->
<g id="edge50" class="edge">
<title>n_anon_00231&#45;&gt;n_ccs_002esceneReader_002eclear</title>
<path fill="none" stroke="#9e9e9e" stroke-width="0.5" d="M153.16,-988.12C166.51,-983.29 183.04,-977.51 198,-972.8 212.89,-968.11 229.25,-963.42 244.06,-959.33"/>
<polygon fill="#9e9e9e" stroke="#9e9e9e" stroke-width="0.5" points="248.85,-958.01 244.63,-961.5 247.03,-958.51 244.03,-959.33 244.03,-959.33 244.03,-959.33 247.03,-958.51 243.44,-957.17 248.85,-958.01"/>
</g>
<!-- n_ccs_002esceneReader_002ecreateNodeWithSceneFile&#45;&gt;n__load -->
<g id="edge39" class="edge">
<title>n_ccs_002esceneReader_002ecreateNodeWithSceneFile&#45;&gt;n__load</title>
<path fill="none" stroke="#fc3d21" stroke-width="0.4" stroke-dasharray="5,2" d="M387.21,-892.34C438.28,-890.46 498.13,-888.25 533.65,-886.94"/>
<polygon fill="#fc3d21" stroke="#fc3d21" stroke-width="0.4" points="538.22,-886.78 533.31,-889.21 536.21,-886.85 533.22,-886.96 533.22,-886.96 533.22,-886.96 536.21,-886.85 533.14,-884.71 538.22,-886.78"/>
</g>
<!-- n_getTag -->
<g id="node42" class="node">
<title>n_getTag</title>
<text xml:space="preserve" text-anchor="middle" x="565.67" y="-1226.45" font-family="Helvetica Neue,Helvetica,Arial" font-size="8.00" fill="#fc3d21">getTag</text>
</g>
<!-- n_ccs_002esceneReader_002egetNodeByTag&#45;&gt;n_getTag -->
<g id="edge41" class="edge">
<title>n_ccs_002esceneReader_002egetNodeByTag&#45;&gt;n_getTag</title>
<path fill="none" stroke="#fc3d21" stroke-width="0.4" stroke-dasharray="5,2" d="M314.97,-1191.81C337.65,-1202.81 374.83,-1219.03 409.03,-1225.8 451.51,-1234.21 501.79,-1233.27 533.46,-1231.38"/>
<polygon fill="#fc3d21" stroke="#fc3d21" stroke-width="0.4" points="538.28,-1231.08 533.43,-1233.64 536.27,-1231.21 533.28,-1231.4 533.28,-1231.4 533.28,-1231.4 536.27,-1231.21 533.14,-1229.15 538.28,-1231.08"/>
<text xml:space="preserve" text-anchor="start" x="416.53" y="-1233.87" font-family="Helvetica Neue,Helvetica" font-size="7.00" fill="#00695c"> (</text>
<text xml:space="preserve" text-anchor="start" x="420.28" y="-1233.87" font-family="Helvetica Neue,Helvetica" font-size="7.00" fill="#0b3d91">null</text>
<text xml:space="preserve" text-anchor="start" x="430.78" y="-1233.87" font-family="Helvetica Neue,Helvetica" font-size="7.00" fill="#00695c">, </text>
<text xml:space="preserve" text-anchor="start" x="435.28" y="-1233.87" font-family="Helvetica Neue,Helvetica" font-size="7.00" fill="#0b3d91">null</text>
<text xml:space="preserve" text-anchor="start" x="445.78" y="-1233.87" font-family="Helvetica Neue,Helvetica" font-size="7.00" fill="#00695c">)</text>
</g>
<!-- n__nodeByTag -->
<g id="node43" class="node">
<title>n__nodeByTag</title>
<text xml:space="preserve" text-anchor="middle" x="565.67" y="-1095.45" font-family="Helvetica Neue,Helvetica,Arial" font-size="8.00" fill="#fc3d21">_nodeByTag</text>
</g>
<!-- n_ccs_002esceneReader_002egetNodeByTag&#45;&gt;n__nodeByTag -->
<g id="edge42" class="edge">
<title>n_ccs_002esceneReader_002egetNodeByTag&#45;&gt;n__nodeByTag</title>
<path fill="none" stroke="#fc3d21" stroke-width="0.4" stroke-dasharray="5,2" d="M319.79,-1191.82C354.26,-1204.35 415.02,-1219.59 454.78,-1190.8 480.16,-1172.42 454.29,-1145.63 476.78,-1123.8 491.08,-1109.92 512.42,-1103.4 530.49,-1100.36"/>
<polygon fill="#fc3d21" stroke="#fc3d21" stroke-width="0.4" points="535.01,-1099.66 530.41,-1102.65 533.02,-1099.97 530.07,-1100.42 530.07,-1100.42 530.07,-1100.42 533.02,-1099.97 529.73,-1098.2 535.01,-1099.66"/>
</g>
<!-- n__node -->
<g id="node44" class="node">
<title>n__node</title>
<text xml:space="preserve" text-anchor="middle" x="565.67" y="-1146.45" font-family="Helvetica Neue,Helvetica,Arial" font-size="8.00" fill="#fc3d21">_node</text>
</g>
<!-- n_ccs_002esceneReader_002egetNodeByTag&#45;&gt;n__node -->
<g id="edge43" class="edge">
<title>n_ccs_002esceneReader_002egetNodeByTag&#45;&gt;n__node</title>
<path fill="none" stroke="#fc3d21" stroke-width="0.4" stroke-dasharray="5,2" d="M328.5,-1169.82C351.2,-1163.24 381.57,-1155.46 409.03,-1151.8 451.95,-1146.07 502.12,-1146.34 533.64,-1147.34"/>
<polygon fill="#fc3d21" stroke="#fc3d21" stroke-width="0.4" points="538.44,-1147.5 533.36,-1149.58 536.42,-1147.44 533.44,-1147.33 533.44,-1147.33 533.44,-1147.33 536.42,-1147.44 533.51,-1145.09 538.44,-1147.5"/>
</g>
<!-- n_ccs_002esceneReader_002e_nodeByTag&#45;&gt;n_getTag -->
<g id="edge46" class="edge">
<title>n_ccs_002esceneReader_002e_nodeByTag&#45;&gt;n_getTag</title>
<path fill="none" stroke="#fc3d21" stroke-width="0.4" stroke-dasharray="5,2" d="M316.63,-1110.8C366.49,-1134.52 483.9,-1190.37 537.33,-1215.79"/>
<polygon fill="#fc3d21" stroke="#fc3d21" stroke-width="0.4" points="541.55,-1217.8 536.07,-1217.69 539.73,-1216.94 537.04,-1215.65 537.04,-1215.65 537.04,-1215.65 539.73,-1216.94 538,-1213.62 541.55,-1217.8"/>
<text xml:space="preserve" text-anchor="start" x="427.41" y="-1177.45" font-family="Helvetica Neue,Helvetica" font-size="7.00" fill="#00695c"> (0)</text>
</g>
<!-- n_ccs_002esceneReader_002e_nodeByTag&#45;&gt;n__nodeByTag -->
<g id="edge47" class="edge">
<title>n_ccs_002esceneReader_002e_nodeByTag&#45;&gt;n__nodeByTag</title>
<path fill="none" stroke="#fc3d21" stroke-width="0.4" stroke-dasharray="5,2" d="M360.19,-1099.31C414.03,-1098.91 487.6,-1098.37 530.24,-1098.05"/>
<polygon fill="#fc3d21" stroke="#fc3d21" stroke-width="0.4" points="535.05,-1098.02 530.07,-1100.31 533.04,-1098.03 530.05,-1098.06 530.05,-1098.06 530.05,-1098.06 533.04,-1098.03 530.03,-1095.81 535.05,-1098.02"/>
</g>
<!-- n_getChildren -->
<g id="node45" class="node">
<title>n_getChildren</title>
<text xml:space="preserve" text-anchor="middle" x="565.67" y="-1044.45" font-family="Helvetica Neue,Helvetica,Arial" font-size="8.00" fill="#fc3d21">getChildren</text>
</g>
<!-- n_ccs_002esceneReader_002e_nodeByTag&#45;&gt;n_getChildren -->
<g id="edge45" class="edge">
<title>n_ccs_002esceneReader_002e_nodeByTag&#45;&gt;n_getChildren</title>
<path fill="none" stroke="#fc3d21" stroke-width="0.4" stroke-dasharray="5,2" d="M350.03,-1088.75C404.91,-1078.03 486.37,-1062.1 531.52,-1053.28"/>
<polygon fill="#fc3d21" stroke="#fc3d21" stroke-width="0.4" points="536.36,-1052.33 531.89,-1055.5 534.39,-1052.72 531.45,-1053.29 531.45,-1053.29 531.45,-1053.29 534.39,-1052.72 531.02,-1051.08 536.36,-1052.33"/>
<text xml:space="preserve" text-anchor="start" x="409.03" y="-1079.07" font-family="Helvetica Neue,Helvetica" font-size="7.00" fill="#00695c"> (</text>
<text xml:space="preserve" text-anchor="start" x="412.78" y="-1079.07" font-family="Helvetica Neue,Helvetica" font-size="7.00" fill="#0b3d91">null</text>
<text xml:space="preserve" text-anchor="start" x="423.28" y="-1079.07" font-family="Helvetica Neue,Helvetica" font-size="7.00" fill="#00695c">, </text>
<text xml:space="preserve" text-anchor="start" x="427.78" y="-1079.07" font-family="Helvetica Neue,Helvetica" font-size="7.00" fill="#0b3d91">null</text>
<text xml:space="preserve" text-anchor="start" x="438.28" y="-1079.07" font-family="Helvetica Neue,Helvetica" font-size="7.00" fill="#00695c">, </text>
<text xml:space="preserve" text-anchor="start" x="442.78" y="-1079.07" font-family="Helvetica Neue,Helvetica" font-size="7.00" fill="#0b3d91">null</text>
<text xml:space="preserve" text-anchor="start" x="453.28" y="-1079.07" font-family="Helvetica Neue,Helvetica" font-size="7.00" fill="#00695c">)</text>
</g>
<!-- n_removeAll -->
<g id="node46" class="node">
<title>n_removeAll</title>
<text xml:space="preserve" text-anchor="middle" x="565.67" y="-934.45" font-family="Helvetica Neue,Helvetica,Arial" font-size="8.00" fill="#fc3d21">removeAll</text>
</g>
<!-- n_ccs_002esceneReader_002eclear&#45;&gt;n_removeAll -->
<g id="edge51" class="edge">
<title>n_ccs_002esceneReader_002eclear&#45;&gt;n_removeAll</title>
<path fill="none" stroke="#fc3d21" stroke-width="0.4" stroke-dasharray="5,2" d="M344.84,-944.91C400.46,-942.86 487.43,-939.65 533.54,-937.95"/>
<polygon fill="#fc3d21" stroke="#fc3d21" stroke-width="0.4" points="538.46,-937.77 533.55,-940.2 536.45,-937.84 533.47,-937.95 533.47,-937.95 533.47,-937.95 536.45,-937.84 533.39,-935.7 538.46,-937.77"/>
</g>
<!-- n_end -->
<g id="node47" class="node">
<title>n_end</title>
<text xml:space="preserve" text-anchor="middle" x="565.67" y="-985.45" font-family="Helvetica Neue,Helvetica,Arial" font-size="8.00" fill="#fc3d21">end</text>
</g>
<!-- n_ccs_002esceneReader_002eclear&#45;&gt;n_end -->
<g id="edge52" class="edge">
<title>n_ccs_002esceneReader_002eclear&#45;&gt;n_end</title>
<path fill="none" stroke="#fc3d21" stroke-width="0.4" stroke-dasharray="5,2" d="M344.84,-954.56C400.46,-962.97 487.43,-976.12 533.54,-983.09"/>
<polygon fill="#fc3d21" stroke="#fc3d21" stroke-width="0.4" points="538.47,-983.84 533.19,-985.32 536.48,-983.54 533.53,-983.09 533.53,-983.09 533.53,-983.09 536.48,-983.54 533.86,-980.87 538.47,-983.84"/>
</g>
</g>
</svg>
